/* XPM */
static char *result[] = {
/* columns rows colors chars-per-pixel */
"45 45 223 2 ",
"   c #100C01",
".  c #361200",
"X  c #052800",
"o  c #2B3B00",
"O  c #5C0000",
"+  c #4B1301",
"@  c #6F0501",
"#  c #760000",
"$  c #4D2804",
"%  c #573506",
"&  c #752B05",
"*  c #084C01",
"=  c #175702",
"-  c #324F05",
";  c #056800",
":  c #097701",
">  c #157E02",
",  c #2B6201",
"<  c #256E03",
"1  c #336606",
"2  c #387707",
"3  c #6C510D",
"4  c #41690B",
"5  c #49730C",
"6  c #5A7F0F",
"7  c #667712",
"8  c #797B19",
"9  c #73752D",
"0  c #7F5040",
"q  c #797256",
"w  c #767964",
"e  c #7C7872",
"r  c #850001",
"t  c #8A0000",
"y  c #880909",
"u  c #960604",
"i  c #9C0202",
"p  c #8C1D11",
"a  c #A30101",
"s  c #AD0606",
"d  c #B40101",
"f  c #BB0101",
"g  c #B60C0C",
"h  c #A71515",
"j  c #B71717",
"k  c #813309",
"l  c #BE361D",
"z  c #8E312E",
"x  c #963A3A",
"c  c #B62424",
"v  c #B83939",
"b  c #C30101",
"n  c #CA0808",
"m  c #D30707",
"M  c #C71818",
"N  c #D51717",
"B  c #CD261A",
"V  c #C82727",
"C  c #D72727",
"Z  c #C53838",
"A  c #D63939",
"S  c #E72B2B",
"D  c #E63A3A",
"F  c #8D5D10",
"G  c #AC4E12",
"H  c #936C16",
"J  c #BB503A",
"K  c #886C36",
"L  c #9B5050",
"P  c #B05750",
"I  c #8D6F4F",
"U  c #B9684D",
"Y  c #896C6C",
"T  c #8D726A",
"R  c #867979",
"E  c #9A7C7C",
"W  c #AA7878",
"Q  c #CB4B48",
"!  c #DB4646",
"~  c #C75855",
"^  c #DB5959",
"/  c #EA4B4B",
"(  c #E75858",
")  c #C36A6A",
"_  c #D86363",
"`  c #DA7777",
"'  c #E66767",
"]  c #F26C6C",
"[  c #E67878",
"{  c #038A00",
"}  c #009500",
"|  c #039800",
" . c #169A02",
".. c #3A8906",
"X. c #01A300",
"o. c #01AB00",
"O. c #08AB00",
"+. c #02B400",
"@. c #07BF01",
"#. c #27AD03",
"$. c #4D880C",
"%. c #60870F",
"&. c #6A8316",
"*. c #70851A",
"=. c #778B1A",
"-. c #7B8A1D",
";. c #7A9819",
":. c #53A10C",
">. c #7D8D28",
",. c #7F8D30",
"<. c #00C300",
"1. c #00CA00",
"2. c #00D400",
"3. c #04DA00",
"4. c #00E200",
"5. c #7B8459",
"6. c #7F807C",
"7. c #828D1C",
"8. c #84921E",
"9. c #A7821B",
"0. c #8AA81B",
"q. c #92AC1C",
"w. c #94B21D",
"e. c #9DBC1F",
"r. c #818C23",
"t. c #899825",
"y. c #929921",
"u. c #899B34",
"i. c #92A324",
"p. c #99AC26",
"a. c #93A728",
"s. c #9CB426",
"d. c #9FBE20",
"f. c #9EB032",
"g. c #A0A926",
"h. c #A2B52A",
"j. c #A6BC2A",
"k. c #9FC020",
"l. c #A2C121",
"z. c #ACC629",
"x. c #B2CA2D",
"c. c #B6D22C",
"v. c #BAD52E",
"b. c #AEC234",
"n. c #B7CC31",
"m. c #BDD332",
"M. c #BFD637",
"N. c #C0D733",
"B. c #C5DC34",
"V. c #C4DA3C",
"C. c #CCE436",
"Z. c #CFE738",
"A. c #D0E73A",
"S. c #D0E838",
"D. c #889E45",
"F. c #9BAD4C",
"G. c #96A455",
"H. c #AABB53",
"J. c #8D956F",
"K. c #8C9676",
"L. c #9AA375",
"P. c #A3B167",
"I. c #B6CA43",
"U. c #C6DA5B",
"Y. c #D1E845",
"T. c #CCE15D",
"R. c #D3E958",
"E. c #D4E968",
"W. c #D7EB79",
"Q. c #868782",
"!. c #8C9080",
"~. c #9C9D95",
"^. c #AB9494",
"/. c #9CA08F",
"(. c #A8AF91",
"). c #A4A5A4",
"_. c #AAABA4",
"`. c #AAABA9",
"'. c #B3AEAE",
"]. c #BBAEAE",
"[. c #B8B9AF",
"{. c #B4B3B3",
"}. c #B6BAB1",
"|. c #BABDB0",
" X c #BCBCBC",
".X c #D19090",
"XX c #EB8686",
"oX c #F48A8A",
"OX c #EA9898",
"+X c #F59898",
"@X c #D0AEAE",
"#X c #EAA8A8",
"$X c #F4A7A7",
"%X c #F7BCBC",
"&X c #C3CF91",
"*X c #CDDB93",
"=X c #DAEC88",
"-X c #DEEE96",
";X c #CCD3B5",
":X c #DDE9AA",
">X c #DEEAB0",
",X c #E2EEB5",
"<X c #BFC1C1",
"1X c #C4C5C2",
"2X c #CDCDCD",
"3X c #D9DEC6",
"4X c #D3D3D3",
"5X c #DAD3D3",
"6X c #DCDCDB",
"7X c #E6C9C9",
"8X c #F5C9C9",
"9X c #E2D9D9",
"0X c #F8D6D6",
"qX c #DBE1C5",
"wX c #EBF2D1",
"eX c #E6E6E6",
"rX c #EDE2E2",
"tX c #EDEDED",
"yX c #F8E9E9",
"uX c #EFF0F0",
"iX c #F4F4F4",
"pX c #F8F7F7",
"aX c #F9F9F9",
/* pixels */
"S.S.S.S.S.S.S.C.V.V.N.N.N.Y.T.W.E.Y.Z.Z.S.S.S.S.S.S.S.S.Y.E.E.T.Y.n.m.m.B.B.C.A.A.S.S.S.S.",
"S.S.S.S.S.S.C.B.j.a.i.i.y.G.&X>X-XE.S.Z.S.S.S.S.S.S.S.Y.E.-X>X&XF.i.i.t.a.z.B.C.A.A.S.S.S.",
"S.S.S.S.S.S.B.I.G.5.w w w K.}.3X>XE.S.S.S.S.S.S.S.S.S.A.E.>XqX|.K.w w w 5.G.I.Y.S.S.S.S.S.",
"S.S.S.S.S.S.b.P.(.{.{.{.{.{.{.|.&XT.A.S.S.S.S.S.S.S.S.S.T.&X}. X{.{.'.{.{.(.P.j.S.S.S.S.S.",
"S.S.S.S.S.S.u.K.1XeXeXeXeX6X{.!.P.U.R.S.Z.Z.S.S.S.S.S.R.U.P.!. X6XeXtXtXeX1XK.u.S.S.S.S.S.",
"S.S.S.S.S.S.u.!.2XiXaXaXaXtX{.w L.-X-XR.S.S.S.S.S.S.E.=X*XL.w {.tXaXpXaXiX4XQ.,.S.S.S.S.S.",
"S.S.S.S.A.A.,.Q.2XiXaXaXaXtX{.Q.).3X,XW.Y.S.S.S.S.S.W.,X3X).Q. XtXpXaXaXiX2XQ.,.S.S.S.S.S.",
"S.S.S.S.S.A.,.Q.2XiXaXaXaXuX4X{.{.<X;XT.S.S.S.S.S.S.T.;X<X{.{.2XuXpXpXaXiX2XQ.,.S.S.S.S.S.",
"S.S.S.S.C.z.*.Q.2XuXaXaXpXiXtX5X}./.P.I.Y.S.S.S.S.Y.I.P.). X6XtXiXaXaXpXuX2XQ.u.S.S.S.S.S.",
"S.S.S.S.C.k.>.J.}.4XtXpXaXaXaXtX X6.L.*X=XR.Y.S.R.=X*XG.6. XtXpXpXaXpXtX4X}.L.f.S.S.S.S.S.",
"S.S.S.S.Z.x.h.F.J._.4XuXaXpXaXuX<X6.~.3X,XW.Y.Y.W.,X;X/.6.<XtXaXaXpXiX4X`.L.H.M.S.S.S.S.S.",
"S.S.S.S.S.S.C.N.u.6.}.6XtXaXaXuX2X).`.1X>X:X=X-X:XqX2X`.).2XuXaXpXtX6X{.J.u.M.C.S.S.S.S.S.",
"S.S.S.S.S.S.S.B.e.,.L.`.5XuXaXiXeX4X X`.|.qXwXwXqX|.`. X4XeXpXaXuX5X`.K.D.h.C.S.S.S.S.S.S.",
"S.S.S.S.S.S.S.C.k.a.K T ].9XtXpXpXuX2X`.`.2X6X6X2X`.).4XuXpXpXtX6X'.e 9 8.d.C.C.Z.Z.S.S.S.",
"S.S.S.S.S.S.S.B.b.y.G P W `.4XuXpXpXeX2X X`.).).`. X2XeXpXpXuX4X).R 0 3 7 8.e.e.l.S.S.S.S.",
"S.S.S.S.S.S.C.n.,.K U ' ~ W ].9XuXpXpXuX2X).Q.Q.).4XtXpXpXuX6X{.e z y & 3 %.q.l.l.S.S.S.S.",
"S.S.S.S.Z.Z.C.m.r.q .X#X.X~ W @X4XuXaXpXeX2X X X2XeXpXaXuX4X'.E x s b a & 7 q.e.l.S.S.S.S.",
"S.S.S.S.Z.C.C.b.,.Y  X8X+X! v T {.6XuXpXiXuXtXtXuXpXpXuX6X'.Y x c ! ^ Q z 8 j.v.C.S.S.S.S.",
"S.S.S.S.S.S.z.t.9 L .X$XXXA g x E {.4XuXaXaXaXpXaXaXuX4X{.E x g A XX$X.XP G g.b.S.S.S.S.S.",
"S.S.S.S.S.S.i.3 & z ~ ( ! M g h x Y '.6XuXuXuXuXuXuX6X'.Y x j m / +X8X%X' l F i.S.S.S.S.S.",
"S.S.S.S.S.S.-.$ # u j M n d d d i x E `.<X<X X<X<X<X`.W z i d n ! XX$XOX^ j & -.S.S.S.S.Z.",
"S.S.S.S.S.S.-.$ # t a a d d f f d h L Y e Y R 6.6.Q.Y L c s d n V ! ] ^ v y % -.S.S.S.S.Z.",
"S.S.S.S.S.S.=.$ @ r t i f m m m b d h p p z L E ).~.^.W V n f d f M C j u @ $ -.S.S.S.S.Z.",
"S.S.S.S.S.S.-.% @ r r h C D S D C M s a s C XX7X9X6X7XoX! m f f f d s i t @ % -.S.S.S.S.S.",
"S.S.S.S.S.S.s.8 3 p a Z ` oX+XoX[ A n b m D oX0XpXpX0X$X/ m n b m b f a p 3 8 s.S.S.S.S.S.",
"S.S.S.S.S.S.v.h.7.k j ^ #X8X0X8X$X( N m m S oX0XpXpXyX$X/ m n N S S C j k 8 h.m.S.S.S.S.S.",
"S.S.S.S.S.S.C.n.r.& M ] %XyXaXpX%X] N b b C [ %X0X0X8XXX! m A ' XXoX[ ) x >.x.C.S.S.S.S.S.",
"S.S.Z.S.S.S.S.n.t.& M ] %XpXaXyX%X] N d a j ~ [ +X+XoX_ V N / OX%X0X8X@Xw t.n.S.S.S.S.S.S.",
"S.S.S.S.S.S.Z.m.y.H G ( #X9XrX0X$X( N a t u c A / D A c s N ( OX5X6X5X[.J.p.v.C.S.S.S.S.S.",
"S.S.S.S.S.S.S.B.w.7.H P J.^.@X$XXXP g t r t i s f b f i a m D ` ^.(.).(.H.n.B.S.S.S.S.S.S.",
"S.S.S.S.S.S.S.Z.l.q.8.K 9 I U ! Z h r # # r r r t t r r u f B J I q 5.F.V.B.S.S.S.S.S.S.S.",
"S.S.S.S.S.Z.S.S.l.e.e.j.g.g.H G y @ O O O O O O O O O O @ u G 9.g.h.h.n.B.A.S.S.S.S.S.S.S.",
"S.S.S.S.C.l.l.l.l.k.e.e.w.q.y.3 + . o - , , , , , , , o . + 3 y.b.M.z.d.k.c.Z.S.S.S.S.S.S.",
"S.S.S.S.C.k.k.k.l.k.e.e.0.=.8 o   X : X.+.+.+.+.+.+.O.; X   o 8 p.m.z.k.e.c.S.S.S.S.S.S.S.",
"S.S.S.S.S.v.v.v.l.e.e.w.;.5 1 = * ; | 2.4.4.4.4.4.4.1.X.; * = 1 $.0.s.e.k.z.v.v.N.S.S.S.S.",
"S.S.S.S.S.S.S.S.z.e.0.;.:.#.O.o.o.+.<.2.4.4.4.4.4.4.2.<.+.o.o.O.#.:.;.0.e.k.k.k.l.S.S.S.S.",
"S.S.S.S.S.S.S.S.l.q.=.$.#.3.4.4.4.3.2.1.<.<.<.<.<.<.1.2.3.4.4.4.3.#.$.=.w.k.k.k.l.S.S.S.S.",
"S.S.S.S.S.S.S.S.x.e.&.< o.3.4.4.4.4.2.+.X.| } } | X.+.1.4.4.4.4.3.O.< 7 w.k.l.k.l.B.C.C.S.",
"S.Z.Z.S.S.S.S.S.S.N.8.1 | @.1.1.1.<.+.} > < < 1 < > } +.<.1.1.1.@. .2 &.q.k.k.k.l.k.e.B.S.",
"S.S.S.S.S.S.S.S.C.B.p.6 .. .X.o.o.X.} : 5 &.-.-.&.5 : } o.o.X.X. .$.&.;.w.k.k.k.k.l.e.B.S.",
"S.S.S.S.S.S.S.S.S.C.x.0.%.< : { { { : , *.f.x.b.s.*.1 : { } { : 5 8.q.w.k.l.k.k.k.l.k.B.S.",
"S.S.S.S.S.S.S.S.S.S.C.N.s.=.5 < ; ; 2 8 p.m.C.C.m.a.8 2 ; ; < 5 ;.e.N.C.S.v.k.k.l.S.S.S.S.",
"S.S.S.S.S.S.S.S.S.S.S.C.N.j.8.4 * - *.s.n.C.S.S.C.n.s.*.- = 4 -.j.v.C.S.S.v.k.k.l.S.S.S.S.",
"S.S.S.S.S.S.S.S.S.S.S.S.C.B.h.-.7 *.p.m.C.S.S.S.Z.C.m.a.8 7 -.h.B.C.S.S.S.C.c.c.v.S.S.S.S.",
"S.S.S.S.S.S.S.S.S.S.S.S.A.C.B.N.m.m.C.C.S.S.S.S.A.A.C.V.N.N.N.B.C.S.S.S.S.S.S.S.S.S.S.S.S."
};
