/* XPM */
static char *_54782924ca24526a4822818615055fa2rV5ka4QLcU2E2uw[] = {
/* columns rows colors chars-per-pixel */
"45 45 232 2 ",
"   c black",
".  c #3E0D01",
"X  c #003800",
"o  c #272F04",
"O  c #410000",
"+  c #4C0000",
"@  c #550000",
"#  c #4A1701",
"$  c #531A01",
"%  c #630000",
"&  c #6D0101",
"*  c #740000",
"=  c #7B0100",
"-  c #6C1902",
";  c #7E1902",
":  c #562803",
">  c #4A3706",
",  c #743108",
"<  c #7A2727",
"1  c #144400",
"2  c #045E00",
"3  c #165E01",
"4  c #2C4904",
"5  c #314D07",
"6  c #335B06",
"7  c #006D00",
"8  c #086801",
"9  c #1B6402",
"0  c #146F00",
"q  c #007E00",
"w  c #197302",
"e  c #296604",
"r  c #386A08",
"t  c #387205",
"y  c #57450A",
"u  c #48580B",
"i  c #59590B",
"p  c #6C530D",
"a  c #466E0C",
"s  c #586E0F",
"d  c #4D700F",
"f  c #63690C",
"g  c #756012",
"h  c #68751A",
"j  c #6D7B19",
"k  c #707E1A",
"l  c #797524",
"z  c #5A4545",
"x  c #5B5755",
"c  c #654949",
"v  c #794948",
"b  c #705454",
"n  c #5B6056",
"m  c #616657",
"M  c #666A58",
"N  c #6F7656",
"B  c #6D6C6C",
"V  c #7C6C66",
"C  c #7E7E7E",
"Z  c #830100",
"A  c #8C0000",
"S  c #8B0A05",
"D  c #930001",
"F  c #9A0000",
"G  c #921313",
"H  c #A40000",
"J  c #AA0000",
"K  c #A20F0F",
"L  c #B40000",
"P  c #BB0000",
"I  c #B70B0B",
"U  c #AE1616",
"Y  c #8B2C2C",
"T  c #9D2B2B",
"R  c #9E3834",
"E  c #C30000",
"W  c #CB0000",
"Q  c #C60F0F",
"!  c #D50000",
"~  c #DA0000",
"^  c #CB1214",
"/  c #E30000",
"(  c #EC0000",
")  c #F20202",
"_  c #F31212",
"`  c #D0341B",
"'  c #C62424",
"]  c #D52B2B",
"[  c #C13636",
"{  c #D93636",
"}  c #EF3535",
"|  c #EA3B3B",
" . c #944F0D",
".. c #B44C0A",
"X. c #877514",
"o. c #8D4534",
"O. c #AE5E21",
"+. c #AB4E4E",
"@. c #A75D5D",
"#. c #AF615F",
"$. c #8A6565",
"%. c #956D6D",
"&. c #C84A4A",
"*. c #D64A49",
"=. c #E54646",
"-. c #F24545",
";. c #E25858",
":. c #F45757",
">. c #D7605F",
",. c #D36D6D",
"<. c #E46969",
"1. c #F16868",
"2. c #E57676",
"3. c #EB7474",
"4. c #F87878",
"5. c #008400",
"6. c #0A8601",
"7. c #008B00",
"8. c #039400",
"9. c #009C00",
"0. c #159002",
"q. c #00A200",
"w. c #00AA00",
"e. c #07B701",
"r. c #00BB00",
"t. c #15B601",
"y. c #4D8B0D",
"u. c #6A8212",
"i. c #738B15",
"p. c #76831C",
"a. c #78871B",
"s. c #7B8C1D",
"d. c #6B9212",
"f. c #7C9217",
"g. c #48A709",
"h. c #778526",
"j. c #00C300",
"k. c #00C900",
"l. c #00D700",
"z. c #00DC00",
"x. c #01E200",
"c. c #00EB00",
"v. c #84881D",
"b. c #9E8A1D",
"n. c #81921F",
"m. c #879C19",
"M. c #86A119",
"N. c #8EAC1B",
"B. c #91AE1D",
"V. c #94B11D",
"C. c #98B71E",
"Z. c #9CBC1F",
"A. c #889720",
"S. c #8B9C22",
"D. c #8F9E3E",
"F. c #A59621",
"G. c #8CA020",
"H. c #93A424",
"J. c #9AAC27",
"K. c #9DB326",
"L. c #9FBE21",
"P. c #A4BC27",
"I. c #A0B32A",
"U. c #AABD2C",
"Y. c #B1BF2C",
"T. c #9FC020",
"R. c #A1C121",
"E. c #A8C725",
"W. c #AAC826",
"Q. c #AEC32D",
"!. c #B1C52E",
"~. c #B1CC2B",
"^. c #B6D22C",
"/. c #BAD52E",
"(. c #B7CC30",
"). c #B9CD34",
"_. c #BCD232",
"`. c #BDD536",
"'. c #C0D633",
"]. c #C4DB34",
"[. c #C8DF35",
"{. c #CBE336",
"}. c #CFE738",
"|. c #D0E838",
" X c #8B975A",
".X c #97A54C",
"XX c #9CAB50",
"oX c #A2B15B",
"OX c #949F69",
"+X c #83867A",
"@X c #8B907B",
"#X c #98A36B",
"$X c #AFC247",
"%X c #B2C545",
"&X c #8C8683",
"*X c #968484",
"=X c #9D9B99",
"-X c #AB9696",
";X c #A59E9E",
":X c #B69F9F",
">X c #A5AB8F",
",X c #A7AD90",
"<X c #A7A0A0",
"1X c #ABADAD",
"2X c #B6BAAB",
"3X c #B4B4B4",
"4X c gray73",
"5X c #D39191",
"6X c #E98686",
"7X c #F68F8F",
"8X c #F29393",
"9X c #F49D9D",
"0X c #D1B0B0",
"qX c #F7A6A6",
"wX c #E7B1B1",
"eX c #F9B7B7",
"rX c #F4BCBC",
"tX c #C4C4C3",
"yX c #CCCCCC",
"uX c #D2CCCB",
"iX c #D0D0D0",
"pX c #DADADA",
"aX c #F7CCCC",
"sX c #EAD4D4",
"dX c #F7D8D8",
"fX c #E5E5E5",
"gX c #EBEBEB",
"hX c #F9E4E4",
"jX c #F6EAEA",
"kX c #F5F5F5",
"lX c #F8F5F5",
"zX c #FAFAFA",
/* pixels */
"|.|.|.|.|.|.|.|.|.|.|.|.|.|.|.{.Q.A.j p.J.'.|.|.'.J.p.j A.Q.{.|.|.|.|.|.|.|.|.|.|.|.|.|.|.",
"|.|.|.|.|.|.|.|.|.|.|.|.|.}.[.).oX@XC +X#X$X_._.$X#X+XC @XoX).[.}.|.|.|.|.|.|.|.|.|.|.|.|.",
"|.|.|.|.|.|.|.|.|.|.|.|.|.{.Q.D.>XtXiXyX2XOXn.n.OX2XyXiXtX>XD.Q.{.|.|.|.|.|.|.|.|.|.|.|.|.",
"|.|.|.|.|.|.|.|.|.|.|.}.{.`.XX@X4XgXlXkXyX+Xo o +XyXkXlXgX4X@XXX`.{.}.|.|.|.|.|.|.|.|.|.|.",
"|.|.|.|.|.|.|.|.}.}.}.{.Q..X,XtXpXkXzXlXiXC     C iXlXzXkXpXtX,X.XQ.{.|.|.|.|.|.|.|.|.|.|.",
"|.|.|.|.|.|.|.|.E.R.~.].H.N 3XgXlXlXlXlXiXC     C iXlXlXlXlXgX3XN H.].|.|.|.|.|.|.|.|.|.|.",
"|.|.|.|.|.|.|.|.E.R.~.].S.M 3XgXlXlXlXlXiXC     C iXlXlXlXlXgX3XM S.'.|.|.|.|.|.|.|.|.|.|.",
"|.|.|.|.|.|.|.|.E.R.~.].H.M 3XgXlXlXlXlXiXC     C iXlXlXlXlXgX3XM H.'.|.|.|.|.|.|.|.|.|.|.",
"|.|.|.|.}.W.W.W.R.R.R.P.i.m 3XgXlXlXlXlXiXC     C iXlXlXlXlXgX3Xm i._.|.|.|.|.|.|.|.|.|.|.",
"|.|.|.|.}.R.R.R.R.R.L.V.u.m 3XgXlXlXlXlXiXC     C iXlXlXlXlXgX3Xm u.~.}.|.|.|.|.|.|.|.|.|.",
"|.|.|.|.}.~.~.~.R.Z.N.f.s n 3XgXlXlXlXlXiXC     C iXlXlXlXzXgX4Xn s G.Q./.{.|.|.|.|.|.|.|.",
"|.|.|.|.|.|.|.|.E.V.i.u o x 3XgXlXlXlXlXiXC     C iXlXlXlXlXgX3Xx o u i.B.~.|.|.|.|.|.|.|.",
"|.|.|.|.|.|.|.{.K.f.f # + c =XyXfXkXzXlXiXC     C iXlXlXkXfXyX-Xv @ $ f f.L.{.|.|.|.|.|.|.",
"|.|.|.|.|.|.|.`.f.i , = = < b &XtXgXzXlXiXC     C iXlXlXgXtX&X$.T D Z , i f.`.}.}.|.|.|.|.",
"|.|.|.|.|.|.|._.s.: A J H D % z 1XgXzXlXiXC     C iXlXzXgX1Xz Z J P J A $ s B.R.E.|.|.|.|.",
"|.|.|.|.|.|.|.).s.- L ! W J * z 1XgXzXlXiXC     C iXlXzXgX1Xz = L W ! L - s N.R.E.|.|.|.|.",
"|.|.|.|.|.|.'.U.X.o.,.3.;.' A c 1XgXzXlXiXC     C iXlXzXgX1Xc A ' ;.3.,.R X.m.V.R.|.|.|.|.",
"|.|.|.|.|.|.J.v. .#.0XrX8X{ H c 1XgXzXlXiXC     C iXlXzXgX1Xc H { 8XrXwX>...X.H.{.|.|.|.|.",
"|.|.|.|.|.|.a.: A #.wXaX9X=.L v ;XpXkXkXpX=XB B =XpXkXkXpX;Xv L =.9XaXeX<.E , a.|.|.|.|.|.",
"|.|.|.|.|.|.k + Z +.6X9X3.] L T %.<XyXgXgXpXtXtXpXgXgXyX<X%.T L ] 3.9X6X&.H % k |.|.|.|.|.",
"|.|.|.|.|.|.p.# & U { | ] I L I G v ;XpXgXfXfXfXfXgXpX;Xv G I P I ] | { U * # p.|.|.|.|.|.",
"|.|.|.|.|.|.k O & D L E P P L L H S %.<X3X3X3X3X3X1X;X%.S H L P L P E L D & . k |.|.|.|.|.",
"|.|.|.|.|.|.s.y - S A F J L P P P I T v c b b B B B V +.U P P P P L H D S - y s.|.|.|.|.|.",
"|.|.|.|.|.|.P.A.g - = Z D H E ! ~ ! P D A H @.-X1X1X:X,.] E P W ! ! E J ; g A.P.|.|.|.|.|.",
"|.|.|.|.|.|.[.!.a.: & A D K ] | -.| { Q E ^ 6XsXgXgXsX9X} ! Q ] | -.| [ < a.Q.[.|.|.|.|.|.",
"|.|.|.|.|.|.|._.s.. & D J [ 2.9XqXqX6X*./ _ 7XdXlXzXhXqX} / { 2.9XqXqX5Xv s._.|.|.|.|.|.|.",
"|.|.|.|.|.|.|._.n.> % D E ;.qXdXjXhXeX1.) ) 7XdXlXlXhXqX} ) :.qXdXhXdX0XV n._.|.|.|.|.|.|.",
"|.|.|.|.|.|.|.'.I.a.p S W :.eXlXzXlXaX4.) / 2.eXaXaXrX6X] ( :.eXjXgXiX2XOXI.].|.|.|.|.|.|.",
"|.|.|.|.|.|.|.}._.P.a., E :.eXjXlXlXaX4./ P &.<.4.4.3.&.U ~ :.eXjXiX=X#X%X'.}.|.|.|.|.|.|.",
"|.|.|.|.|.|.|.|.E.V.m.v...*.5XuXsXdXqX<.W H H W / / ! L F P *.5XuX2X XI.].|.|.|.|.|.|.|.|.",
"|.|.|.|.|.|.|.|.W.L.R.Y.b.o.$.*X5X6X<.[ H D D H L L J F A A Y $.&X#X%X].}.|.|.|.|.|.|.|.|.",
"|.|.|.|.|.}.}.|.W.R.~.[.I.p.h l O.` Q D = = = = = = = = , g h h h.I.].}.}.}.|.|.|.|.|.|.|.",
"|.|.|.|.}.R.R.R.R.R.R.P.V.N.Q.U.F. .Z % + + + + + + + + p A.U.Q.!.`.~.R.R.^.|.|.|.|.|.|.|.",
"|.|.|.|.}.R.L.L.R.R.R.L.C.V.`.).H.i 4 9 0 0 0 0 0 0 9 1 u H.(.`._.[.~.P.R.~.|.|.|.|.|.|.|.",
"|.|.|.|.}./././.R.R.R.Z.M.i.s.s.s 4 q r.j.j.j.j.k.k.r.q 5 j S.S.n.K.R.P.R.E./././.|.|.|.|.",
"|.|.|.|.|.|.|.|.E.L.Z.N.d.t 9 e 3 0 w.z.c.c.c.c.c.c.z.w.0 e r e t d.N.Z.L.R.L.L.R.|.|.|.|.",
"|.|.|.|.|.|.|.|.E.Z.M.d.g.e.r.r.r.r.k.l.z.z.z.z.z.z.l.k.r.r.r.r.e.g.d.M.Z.R.R.R.E.|.|.|.|.",
"|.|.|.|.|.|.|.|.~.L.i.t t.x.c.c.c.c.z.j.r.r.r.r.r.r.j.z.c.c.c.c.x.t.t u.V.R.R.R.R.{.{.}.|.",
"|.|.|.|.|.|.|.|.|.`.s.3 w.z.x.x.x.z.k.w.8.7.5.5.7.8.w.k.z.x.x.x.z.w.3 h B.R.R.T.R.Z.Z.].|.",
"|.|.|.|.|.|.|.|.|.'.n.6 8.e.j.r.j.r.w.7.w e 6 6 e w 7.w.r.j.r.j.e.8.r u.V.R.T.T.R.R.Z.].|.",
"|.|.|.|.|.|.|.|.|.[.K.u.y.0.9.q.q.9.7.7 d s.S.S.s.d 7 7.9.q.q.9.0.y.i.m.Z.R.R.R.R.R.R.].|.",
"|.|.|.|.|.|.|.|.|.}.[.!.A.r 7 6.5.5.7 6 a.Q.'.'.Q.a.6 7 5.5.6.7 a A.!.[.{./.Z.R.R.}.}.}.|.",
"|.|.|.|.|.|.|.|.|.|.|.{.U.n.s 9 8 2 a a.K.'.|.|.'.K.a.a 2 8 9 s n.U.{.|.|.].Z.T.R.|.|.|.|.",
"|.|.|.|.|.|.|.|.|.|.|.}.[.!.A.u X 5 s.Q.'.}.|.|.}.'.Q.s.5 X u S.!.[.}.|.|.{.^.^./.|.|.|.|.",
"|.|.|.|.|.|.|.|.|.|.|.|.|.{.U.n.j s.K.].|.|.|.|.|.|.].K.s.j n.U.{.|.|.|.|.|.|.|.|.|.|.|.|."
};
