/* XPM */
static char *rato1_d1714678128[] = {
/* columns rows colors chars-per-pixel */
"40 40 35 1 ",
"  c black",
". c #222034",
"X c #45283C",
"o c #663931",
"O c #8F563B",
"+ c #DF7126",
"@ c #D9A066",
"# c #EEC39A",
"$ c #FBF236",
"% c #99E550",
"& c #6ABE30",
"* c #37946E",
"= c #4B692F",
"- c #524B24",
"; c #323C39",
": c #3F3F74",
"> c #306082",
", c #5B6EE1",
"< c #639BFF",
"1 c #5FCDE4",
"2 c #CBDBFC",
"3 c white",
"4 c #9BADB7",
"5 c #847E87",
"6 c #696A6A",
"7 c #595652",
"8 c #76428A",
"9 c #AC3232",
"0 c #D95763",
"q c #D77BBA",
"w c #8F974A",
"e c #8A6F30",
"r c #7FA45D",
"t c #4F6937",
"y c #566D41",
/* pixels */
"=t===tyt==tt=tyt=tt==tt===tt==tttttt====",
"===t==tt==tt==tt=tt=tyt==t====ttttyt==t=",
"==tyt=====yy========tyt=tyt=======tt=tyt",
"==tyt=====tt===tyt==tyt=tyttyt=======tyt",
"===t======tt===tyt===t==tt=tyt==tt===tyt",
"t=====tt==tt===ttt=tt======tyt==tyt==ttt",
"t====tyt==tt=======yy======tyt==ttt=====",
"t=tyttyt==yy===tyt=yy===tyt=============",
"t=tyttyt==tt===tyt=tt===tyt===tt=====ttt",
"t=tt==tt====tt=tyt======tt===tttt=tt=tyt",
"===========tyt=tyt===============tyt=tyt",
"====tt=====tyt======tyt=====tt===tyt=tyt",
"ttt=yytttt=ttt======tyt=tt=tyt====tt==t=",
"tyt=ttttyt=======tt==tt=tyttyt==tt=====t",
"tyt====tyt==.....@yt===.....yt==tt=====t",
"tyt==t==t===.4444.yt==.4444.t===tytttt=t",
"=t==tyt===t=.4344.t==t.4434.====tyttyt=t",
"t===yyt==ttt.6#66.@=ty.66#6.====tt=tyt=t",
"t===ttt==tyy.6##6......6##6.tt=====tyt=t",
"t=========tt.66664444446666.yt=====tt==t",
"t=======tt===...64444446...tyt==t======t",
"====tytttt===tt.44444444.tt=tt==tttttt=t",
"ttt=tyttyy=====.44.22.44.@======tyt=====",
"tyt=====tt===tt.22622622.=======tyt==tt=",
"ttt==========t@..22##22..=@=====tt===tyt",
"======tt=ttt=t.44......44.==tt==t====tyt",
"=====tyt==yyt.44.664466.44.tyt=======tyt",
"=t===tyt==tt=.32.622226.23.=tt=======ttt",
"tyt===tt=====t...442244...======ttt=====",
"tyt===tt=ttt==tt.44..44.==ttt===tt=ttt=t",
"ttt===tt==yytttt=.#..#.===tyt===t==tyt=t",
"===t===t==yyttyt==t=tyt====t=======ttt=t",
"t=tyt=====ttttyt=tyttyt=======yy=======t",
"t=tyt=tt=====tyt=tyt=t====tt==yytttt===t",
"t=tt=tyt======tt=tyt===t==yyt=yyttyy==t=",
"=====tyt=========tyt==tyttyyt=ttttyt=tyt",
"tyt==tyt===ttt========tyt=tyt====tyt=tyt",
"tyt===tt===tyt=ttt====tyt=tt==tt==tt=tyt",
"tyt=tt=====tyyttyt=tt=ttt=tt==yyt=tt=ttt",
"tyt=tyt====tyyttyt=yy=====yt==yyttyt===="
};
