/* XPM */
static char *enemy1714678129[] = {
/* columns rows colors chars-per-pixel */
"40 40 35 1 ",
"  c black",
". c #222034",
"X c #45283C",
"o c #663931",
"O c #8F563B",
"+ c #DF7126",
"@ c #D9A066",
"# c #EEC39A",
"$ c #FBF236",
"% c #99E550",
"& c #6ABE30",
"* c #37946E",
"= c #4B692F",
"- c #524B24",
"; c #323C39",
": c #3F3F74",
"> c #306082",
", c #5B6EE1",
"< c #639BFF",
"1 c #5FCDE4",
"2 c #CBDBFC",
"3 c white",
"4 c #9BADB7",
"5 c #847E87",
"6 c #696A6A",
"7 c #595652",
"8 c #76428A",
"9 c #AC3232",
"0 c #D95763",
"q c #D77BBA",
"w c #8F974A",
"e c #8A6F30",
"r c #7FA45D",
"t c #4F6937",
"y c #566D41",
/* pixels */
"=t===tyt==tt=tyt=tt==tt===tt==tttttt====",
"===t==tt==tt==tt=tt=tyt==t====ttttyt==t=",
"==tyt=====yy========tyt=tyt=======tt=tyt",
"==tyt=====tt===tyt==tyt=tyttyt=======tyt",
"===t======tt===tyt===t==tt=tyt==tt===tyt",
"t=====tt==tt===ttt=tt======tyt==tyt==ttt",
"t====tyt==tt=======yy======tyt==ttt=====",
"t=tyttyt==yyXXXtyt=yy===tyXXX===========",
"t=tyttyt==tX8X=tyt=tt===tytX8Xtt=====ttt",
"t=tt==tt==X8:t=t.t======.t==:8Xtt=tt=tyt",
"=========X8:yt=.6.=====.6.===:8X=tyt=tyt",
"====tt===X8:yt.:5:.=ty.:5:.=t:8X=tyt=tyt",
"ttt=yytttX88Xt.6q5.=ty.5q6.tX88X==tt==t=",
"tyt=ttttyX888X:qq5:...:5qq:X888Xtt=====t",
"tyt====tyX:88:Xq656666656qX:88:Xtt=====t",
"tyt==t==t=X:::X55555555555X:::X=tytttt=t",
"=t==ty.;;;;XXX55-5555555-55XXX;;;;.tyt=t",
"t===y.;77;;;.655--55555--556.;;;77;.yt=t",
"t===tt.;;;;--655,3552553,556--;;;;.tyt=t",
"t======.;;;;.655qq52225qq556.;;;;.=tt==t",
"t======;;;;--:655522.225556:--;;;;=====t",
"====ty.;;;;;;.:22226462222:.;;;;;;.ttt=t",
"ttt=tyt.;;;;;;..442222244..;;;;;;.t=====",
"tyt=====.;;;;;;...........;;;;;;.yt==tt=",
"ttt=====.;..;;.65244444256.;;..;.t===tyt",
"======tt=.tt..65:2222222:56..t=.t====tyt",
"=====tyt==yy.46:.2222222.:64.t=======tyt",
"=t===tyt==tt.44..2222222..44.t=======ttt",
"tyt===tt=====..t.6222226.=..:.==ttt=====",
"tyt===tt=ttt==tt.6:444:6...::.==tt=ttt=t",
"ttt===tt==yytttt.66...66.:::.===t==tyt=t",
"===t===t==yyttyt.26...62....=======ttt=t",
"t=tyt=====ttttyt.44.t.44.=====yy=======t",
"t=tyt=tt=====tyt=..t=t..==tt==yytttt===t",
"t=tt=tyt======tt=tyt===t==yyt=yyttyy==t=",
"=====tyt=========tyt==tyttyyt=ttttyt=tyt",
"tyt==tyt===ttt========tyt=tyt====tyt=tyt",
"tyt===tt===tyt=ttt====tyt=tt==tt==tt=tyt",
"tyt=tt=====tyyttyt=tt=ttt=tt==yyt=tt=ttt",
"tyt=tyt====tyyttyt=yy=====yt==yyttyt===="
};
