/* XPM */
static char *f8b21647b8cf40ddbc4cf3b5d6d44477RLQNbxzbQ3EsC268[] = {
/* columns rows colors chars-per-pixel */
"45 45 207 2 ",
"   c #000000",
".  c gray8",
"X  c #272727",
"o  c #2C2C2C",
"O  c #383838",
"+  c #440000",
"@  c #4C0700",
"#  c #570000",
"$  c #5A0000",
"%  c #54170E",
"&  c #640000",
"*  c #6D0000",
"=  c #720000",
"-  c #7A0000",
";  c #711810",
":  c #612A02",
">  c #6D2C02",
",  c #712A03",
"<  c #582222",
"1  c #762222",
"2  c #5F4A06",
"3  c #6C4A06",
"4  c #775709",
"5  c #5D620B",
"6  c #796B0D",
"7  c #7F700E",
"8  c #7D7B1B",
"9  c #505E26",
"0  c #5A6828",
"q  c #596237",
"w  c #69742B",
"e  c #6B7639",
"r  c #464646",
"t  c #5D4646",
"y  c #555555",
"u  c #5A5A5A",
"i  c #774949",
"p  c #6E7C47",
"a  c #67695D",
"s  c #666666",
"d  c #6E6E6E",
"f  c #706969",
"g  c #727272",
"h  c #840000",
"j  c #8B0000",
"k  c #8E0A01",
"l  c #940000",
"z  c #9C0000",
"x  c #9F0A00",
"c  c #911802",
"v  c #891818",
"b  c #A30000",
"n  c #AC0000",
"m  c #A20B0B",
"M  c #B30000",
"N  c #BB0000",
"B  c #B00A00",
"V  c #8D2603",
"C  c #9E2F02",
"Z  c #8B3605",
"A  c #8F3E08",
"S  c #A23303",
"D  c #973731",
"F  c #C40000",
"G  c #CC0000",
"H  c #D20000",
"J  c #DB0000",
"K  c #C11A1A",
"L  c #E20000",
"P  c #EC0000",
"I  c #F30000",
"U  c #F90000",
"Y  c #CF3636",
"T  c #E82E2E",
"R  c #F43131",
"E  c #8C4508",
"W  c #8B5B0A",
"Q  c #905F0A",
"!  c #84700E",
"~  c #986914",
"^  c #9C7617",
"/  c #9D7719",
"(  c #957C1B",
")  c #9E7A19",
"_  c #9F4436",
"`  c #977124",
"'  c #8D4D4D",
"]  c #BA4A49",
"[  c #856767",
"{  c #9C6261",
"}  c #857979",
"|  c #937070",
" . c #A56A6A",
".. c #BB6E6E",
"X. c #A57373",
"o. c #E24444",
"O. c #F75858",
"+. c #C46F6F",
"@. c #FA6C6C",
"#. c #7A9216",
"$. c #7A8160",
"%. c #99831B",
"&. c #889A17",
"*. c #829C18",
"=. c #989A18",
"-. c #A2831B",
";. c #86A11A",
":. c #8AA51A",
">. c #93A61C",
",. c #96B41E",
"<. c #9BB51E",
"1. c #9EBE1F",
"2. c #A0B71F",
"3. c #849E23",
"4. c #93AE20",
"5. c #9FBE20",
"6. c #90AA32",
"7. c #9FB231",
"8. c #ACA624",
"9. c #B1A926",
"0. c #A0BF20",
"q. c #AAB929",
"w. c #B6B529",
"e. c #B7B82A",
"r. c #B7BB2A",
"t. c #ADB536",
"y. c #9FC020",
"u. c #A1C121",
"i. c #A9C725",
"p. c #AAC826",
"a. c #ADC52B",
"s. c #B1C62E",
"d. c #BEC72F",
"f. c #B1CE2A",
"g. c #B7D32C",
"h. c #BAD52E",
"j. c #A2C13A",
"k. c #BFDA30",
"l. c #C4D635",
"z. c #C3DC32",
"x. c #C9DB34",
"c. c #C7E034",
"v. c #CCE436",
"b. c #CFE738",
"n. c #D0E738",
"m. c #D0E838",
"M. c #8A974E",
"N. c #8D9B6A",
"B. c #A2B06F",
"V. c #AFCB51",
"C. c #ADC861",
"Z. c #848080",
"A. c #898484",
"S. c #8C8C8C",
"D. c #988A8A",
"F. c #9A9696",
"G. c #9E9E9D",
"H. c #A08282",
"J. c #A59494",
"K. c #AB9494",
"L. c #B79797",
"P. c #BEB087",
"I. c #A2A49E",
"U. c #A5A5A5",
"Y. c #A6A8A1",
"T. c #ABABAB",
"R. c #BCA8A8",
"E. c #B2B5A8",
"W. c #B6B6B6",
"Q. c #BABAB4",
"!. c #BABABA",
"~. c #E09898",
"^. c #C0AC98",
"/. c #CDAEAE",
"(. c #C9B9B9",
"). c #F0ADAD",
"_. c #F8B0B0",
"`. c #B9CC88",
"'. c #C3D49B",
"]. c #D4D89B",
"[. c #DBED8C",
"{. c #CBD7AC",
"}. c #C6CEB2",
"|. c #C5C5C5",
" X c #C8C5C5",
".X c #CECDCD",
"XX c #D5CFCF",
"oX c #D4D4D4",
"OX c #DAD8D2",
"+X c #DCDCDC",
"@X c #E5CFCF",
"#X c #F8C4C4",
"$X c #E2DADA",
"%X c #FADEDE",
"&X c #DCE3CF",
"*X c #E6EBCB",
"=X c #EBF1D7",
"-X c #F0F5DF",
";X c #E3E2E2",
":X c #EAE4E3",
">X c #E8E9E7",
",X c #ECECEC",
"<X c #F4E8E8",
"1X c #EEF0E5",
"2X c #F4F4F4",
"3X c #F8F2F2",
"4X c #F9F9F9",
/* pixels */
"m.m.m.m.m.m.m.m.m.m.m.m.m.m.m.m.m.m.m.m.m.m.m.m.m.m.m.m.m.m.m.m.m.m.m.m.m.m.m.m.m.m.m.m.m.",
"m.m.m.m.m.m.m.m.m.m.m.m.m.m.m.m.m.m.m.m.m.m.m.m.m.m.m.m.m.m.m.m.m.m.m.m.m.m.m.m.m.m.m.m.m.",
"m.m.m.m.m.m.m.m.m.m.m.m.m.m.m.m.m.m.m.m.m.m.m.m.m.m.m.m.m.m.m.m.m.m.m.m.m.m.m.m.m.m.m.m.m.",
"m.m.m.m.m.m.m.m.m.m.m.m.m.m.m.m.m.m.m.m.m.m.m.m.m.m.m.m.m.m.m.m.m.m.m.m.m.m.m.m.m.m.m.m.m.",
"m.m.m.m.m.m.m.m.b.b.b.m.m.m.m.m.m.m.m.m.m.m.m.m.m.m.m.m.m.m.m.m.m.m.m.m.m.m.m.m.m.m.m.m.m.",
"m.m.m.m.m.m.m.m.i.u.f.m.m.m.m.m.m.m.m.m.m.m.m.m.m.m.m.m.m.m.m.m.m.m.m.m.m.m.m.m.m.m.m.m.m.",
"m.m.m.m.m.m.m.m.i.u.f.m.m.m.m.m.m.m.m.m.m.m.m.m.m.m.m.m.m.m.m.m.m.m.m.m.m.m.m.m.m.m.m.m.m.",
"m.m.m.m.m.m.m.m.i.u.f.m.m.m.m.m.v.w.-.) ( 8 8 ( ) ) ) -.w.v.m.m.m.m.m.m.m.m.m.m.m.m.m.m.m.",
"m.m.m.m.b.p.p.p.u.u.u.p.p.p.b.x.e.%.D X.K.F.A.i - l l V -.e.x.b.p.i.z.m.m.m.m.m.m.m.m.m.m.",
"m.m.m.m.b.u.u.u.u.u.u.u.y.i.v.e./ E { (.$X;X X} = z b k E / e.x.u.1.z.m.m.m.m.m.m.m.m.m.m.",
"m.m.m.m.b.f.f.f.u.u.u.u.u.2.w.-._ X./.$X3X%X)...z l h = * , %.w.<.5.h.z.z.v.m.m.m.m.m.m.m.",
"m.m.m.m.m.m.m.m.i.u.u.u.1.=.Q C ] /.:X3X<X).O.T F h @ + + @ > W =.1.5.1.1.f.m.m.m.m.m.m.m.",
"m.m.m.m.m.m.m.m.i.u.5.,.*.7 V b ] ~.#X#X_.@.P H N n l h - - = > ! =.<.0.u.f.m.m.m.m.m.m.m.",
"m.m.m.m.m.m.m.m.p.u.u.;.5 : c b K o.O.O.O.R J z b J J N M n h % > W >.0.u.f.b.b.b.m.m.m.m.",
"m.m.m.m.m.m.m.m.b.b.z.&.3 $ * n J I U U P G M M G P I J G N b h * 3 &.u.u.u.u.u.i.m.m.m.m.",
"m.m.m.m.m.m.m.m.m.b.h.=.E * & M L P P I J b z J I U U I J N M n h 2 *.<.5.u.u.u.i.m.m.m.m.",
"m.m.m.m.m.m.m.m.m.l.8.~ S z l z n n n n M N G P U U U U L F N M b Z 6 #.,.u.1.1.u.m.m.m.m.",
"m.m.m.m.m.m.m.m.m.d.^ c B M b j & $ $ # h F P I U U U I J N M M M x ; 5 :.f.c.c.v.m.m.m.m.",
"m.m.m.m.m.m.m.m.m.d.~ z M b h h j j j j l z N P U U P J G N N M z - * 4 >.f.m.m.m.m.m.m.m.",
"m.m.m.m.m.m.m.m.x.w.~ l m ' [ X...+.+.+...| { Y P P J F N N M b h & - W =.s.m.m.m.m.m.m.m.",
"m.m.m.m.m.m.m.m.9./ A - 1 D. XXX@X@X@X@X@XXX(. .n F G N N M z - h l l A ^ 9.m.m.m.m.m.m.m.",
"m.m.m.m.m.b.m.m.( - - i } !.,X4X2X2X2X2X2X2X;XU.[ D b b b b h = l b z j h ) m.m.m.m.m.m.m.",
"m.m.m.m.b.m.m.m.8 + < D..X>X2X4X4X4X4X4X4X4X2X+XQ.[ & & & * h z z l j j j ) m.m.m.m.m.m.m.",
"m.m.m.m.m.m.m.m.8 t Z.!.,X4X4X4X4X4X4X4X4X4X4X2X+XU.S.A.f < - l l h h Z ~ 8.m.m.m.m.m.m.m.",
"m.m.m.m.m.m.m.m.( H..X>X2X2X2X2X2X2X2X2X2X2X2X2X2X;X+X+XR.' * ; ; v v ` t.l.n.n.m.m.m.m.m.",
"m.m.m.m.m.m.m.m.P.(.,X,XoX.X.X.X.X.X.XoX.X.X+X,X4X4X4X2X$XR.J.F.K.L.L.^.].[.n.n.m.m.m.m.m.",
"m.m.m.m.m.m.m.m.*X,X2XoXS.s d d d d d d d d G.+X2X2X2X2X,X:X;X;X;X:X:X:X1X*Xm.m.m.m.m.m.m.",
"m.m.m.m.m.m.m.m.-X,X.XG.r                   s T. X X+X2X4X4X4X4X4X4X4X4X4X-Xm.m.m.m.m.m.m.",
"m.m.m.m.m.m.m.m.=XOXF.y X                   o y u s T.;X2X2X2X2X2X2X2X2X2X=Xm.m.m.m.m.m.m.",
"m.m.m.m.m.m.m.m.{.}.Q.S.O                           d T.!.!.!.!.!.!.!.!.!.}.m.m.m.m.m.m.m.",
"m.m.m.m.m.m.m.m.V.'.OX!.g o .                   X r u s d d d d d d d d a M.m.m.m.m.m.m.m.",
"m.m.m.m.m.b.b.m.i.B.E.!.W.S.O                   s U.!.W.W.!.!.!.!.!.!.E.B.q.m.m.m.m.m.m.m.",
"m.m.m.m.b.u.u.u.u.4.p I.oX!.g y u u u u u u y u G.+X2X2X>X;X;X;X;X;X>X&X`.f.m.m.m.m.m.m.m.",
"m.m.m.m.b.u.5.5.u.,.*.N.Y.W.|. X X X X X X X|. XoX2X4X4X+XW.T.T.T.E.}.'.C.f.m.m.m.m.m.m.m.",
"m.m.m.m.b.h.h.h.u.u.5.;.p I.+X;X;X;X;X;X;X;X;X;X;X;X;X;XQ.$.0 e q e 6.j.u.i.h.h.h.m.m.m.m.",
"m.m.m.m.m.m.m.m.i.u.u.<.;.N.G.U.G.G.G.G.G.G.G.G.G.G.G.G.B.t.a.q.*.;.,.u.u.u.5.5.u.m.m.m.m.",
"m.m.m.m.m.m.m.m.i.u.y.u.5.3.0 9 0 w w w w w w w w w w w 7.x.m.v.5.5.5.u.u.u.u.u.i.m.m.m.m.",
"m.m.m.m.m.m.m.m.f.p.i.u.u.<.,.>.>.a.s.s.s.s.s.s.s.s.s.s.l.b.m.b.p.p.u.u.u.u.u.u.u.v.v.b.m.",
"m.m.m.m.m.m.m.m.m.m.z.1.u.i.b.m.m.m.m.m.m.m.m.m.m.m.m.m.m.m.m.m.m.m.f.u.u.u.u.u.u.1.1.z.m.",
"m.m.m.m.m.m.m.m.m.m.z.1.u.i.m.b.m.m.m.m.m.m.m.m.m.m.m.m.m.m.m.m.m.m.f.u.u.u.u.u.u.u.1.z.m.",
"m.m.m.m.m.m.m.m.m.m.z.u.u.i.m.m.m.m.m.m.m.m.m.m.m.m.m.m.m.m.m.m.m.m.f.u.u.u.u.u.u.u.u.z.m.",
"m.m.m.m.m.m.m.m.m.m.b.b.b.b.m.m.m.m.m.m.m.m.m.m.m.m.m.m.m.m.m.m.m.m.b.b.b.k.1.u.u.b.b.b.m.",
"m.m.m.m.m.m.m.m.m.m.m.m.m.m.m.m.m.m.m.m.m.m.m.m.m.m.m.m.m.m.m.m.m.m.m.m.m.z.1.y.u.m.m.m.m.",
"m.m.m.m.m.m.m.m.m.m.m.m.m.m.m.m.m.m.m.m.m.m.m.m.m.m.m.m.m.m.m.m.m.m.m.m.m.v.g.g.h.m.m.m.m.",
"m.m.m.m.m.m.m.m.m.m.m.m.m.m.m.m.m.m.m.m.m.m.m.m.m.m.m.m.m.m.m.m.m.m.m.m.m.m.m.m.m.m.m.m.m."
};
