/* XPM */
static char *result[] = {
/* columns rows colors chars-per-pixel */
"45 44 158 2 ",
"   c #000000",
".  c #160D04",
"X  c #010B1D",
"o  c #21150D",
"O  c #301F08",
"+  c #2D1D14",
"@  c #242B05",
"#  c #312009",
"$  c #38261A",
"%  c #021229",
"&  c #1C1E22",
"*  c #031833",
"=  c #272425",
"-  c #372B31",
";  c #2F3239",
":  c #303030",
">  c #3C3C3C",
",  c #523815",
"<  c #69481D",
"1  c #4B6A04",
"2  c #527305",
"3  c #596513",
"4  c #5F4231",
"5  c #755121",
"6  c #654734",
"7  c #674936",
"8  c #6B4B34",
"9  c #00244A",
"0  c #002C5A",
"q  c #0B305D",
"w  c #143159",
"e  c #103D72",
"r  c #274473",
"t  c #565656",
"y  c #6A5663",
"u  c #656565",
"i  c #6C6C6C",
"p  c #7C687E",
"a  c #8F6325",
"s  c #91652B",
"d  c #9C6D2F",
"f  c #A07031",
"g  c #986C4F",
"h  c #966B50",
"j  c #986D52",
"k  c #A87D4E",
"l  c #A6775A",
"z  c #8F6A60",
"x  c #946F69",
"c  c #608507",
"v  c #689008",
"b  c #72980D",
"n  c #6F8F17",
"m  c #889821",
"M  c #95AA22",
"N  c #A0BF20",
"B  c #AEBC3D",
"V  c #C0873C",
"C  c #C1883C",
"Z  c #C98E3F",
"A  c #A1C121",
"S  c #CEE636",
"D  c #CFEA34",
"F  c #D0E936",
"G  c #D1E73B",
"H  c #D0E838",
"J  c #B3915B",
"K  c #BB8666",
"L  c #BA8668",
"P  c #BA9373",
"I  c #CB8F40",
"U  c #E09E47",
"Y  c #E19F48",
"T  c #EDA84C",
"R  c #F4AD4F",
"E  c #F8AE48",
"W  c #FAB14C",
"Q  c #F7AF50",
"!  c #F9B150",
"~  c #CF9571",
"^  c #D69D75",
"/  c #D99D77",
"(  c #DEA17A",
")  c #E5A67E",
"_  c #E7AA7E",
"`  c #E8B678",
"'  c #D4DF4A",
"]  c #D4E148",
"[  c #DFC56B",
"{  c #DFC869",
"}  c #E0C56C",
"|  c #044A8B",
" . c #154B8B",
".. c #0A5CAD",
"X. c #175DAB",
"o. c #1E5FAD",
"O. c #205EAA",
"+. c #1E60AF",
"@. c #2765B2",
"#. c #4661A3",
"$. c #0D73D6",
"%. c #1074D7",
"&. c #1074D8",
"*. c #236DC5",
"=. c #2676D5",
"-. c #2877D5",
";. c #2778D8",
":. c #2878D8",
">. c #337EDB",
",. c #407FD9",
"<. c #3881DE",
"1. c #5287C9",
"2. c #5C8BDC",
"3. c #668ED7",
"4. c #6B93DD",
"5. c #7297DE",
"6. c #5194EA",
"7. c #5E9EF1",
"8. c #65A5F6",
"9. c #64A6F8",
"0. c #67A8F8",
"q. c #69A8F8",
"w. c #71ABF8",
"e. c #848484",
"r. c gray62",
"t. c #A0A0A0",
"y. c #ACACAC",
"u. c #A2AABE",
"i. c #BABABA",
"p. c #D9AD82",
"a. c #E7A680",
"s. c #E8A781",
"d. c #E9A880",
"f. c #F9BF82",
"g. c #C1BCBB",
"h. c #F8CA9E",
"j. c #869FC9",
"k. c #95A8C9",
"l. c #B5BCC9",
"z. c #9DBDF3",
"x. c #A6C5F8",
"c. c #B9D0F8",
"v. c #C2C2C2",
"b. c #C8C7C7",
"n. c #CACACA",
"m. c #D8D8D8",
"M. c #F8E1CE",
"N. c #F9E2D0",
"B. c #C6CFE7",
"V. c #CAD4EC",
"C. c #C3D6F8",
"Z. c #DDE6F8",
"A. c #E4E4E4",
"S. c #ECEDED",
"D. c #E0E8F8",
"F. c #F5F5F5",
"G. c #F6F7F8",
"H. c #F9F9F9",
/* pixels */
"    2 v b A A A S D { s.s.s.d.d.(                       ( d.d.d.a.` S S H H H G H H S H H ",
"    2 v b A A A S D { s.d.d.d.d.)                       ( d.d.d.s.` D S H H H H H H H H H ",
"    2 v b A A A { { J h h h h h z +.+.+.+.+.+.+.+.+.+.+.z h h h j J } } { G H H H H H H G ",
"    2 v b A A A _ d.l           9 :.:.:.:.:.:.:.:.:.:.:.9         8 d.s.d.S S H H H H S H ",
"    1 c n B B B / / x 0 q q q q r 5.5.5.5.5.2.<.<.<.:.:.e q q q q y / / / ' ' ' G H H S H ",
"        6 s.s.a.+   X.:.:.:.:.:.3.H.H.H.H.H.C.0.q.7.;.:.:.:.:.:.:.*.    + a.d.s.] G H H H ",
"        4 s.s.a.$   O.:.:.:.:.:.2.H.G.H.H.H.C.0.0.7.:.:.:.:.:.:.:.@.    $ ) d.d.] S H H H ",
"    o + 7 ) ) ) - X O.:.:.>.,.,.4.G.H.H.H.H.C.w.w.8.:.:.:.:.:.:.:.*.X % - ) ) ) ' G G H H ",
"    K ) ^ o + = =.=.6.8.8.x.F.F.F.H.H.H.H.H.G.F.F.Z.9.8.>.;.:.:.:.:.=.=.=.= + o / ) { H H ",
"    K ) /     X $.$.6.8.q.x.H.H.H.H.H.H.F.H.H.H.H.D.9.q.>.;.:.:.:.:.:.:.=.X     / s.[ D F ",
"K K ^ s./     & B.V.z.q.q.x.H.H.H.F.H.F.H.H.H.H.H.D.9.0.>.:.:.:.:.:.:.:.=.X     / d.` [ } ",
"d.s.s._ /     = F.H.c.q.q.x.H.H.H.H.H.H.H.H.H.G.F.D.9.q.>.:.:.;.:.:.:.:.=.X     / _ d.) s.",
"d._ d.d./     = F.H.c.0.q.x.H.H.H.F.H.H.H.F.H.H.G.Z.9.q.>.:.:.:.:.:.:.:.:.X     / a.a.s.s.",
"d.s.~ K P t.t.t.b.b.k.1.1.j.n.n.n.n.n.n.n.n.n.n.n.l.1.1.@.+.+.+.+.o.+.+.o. . .| L L ~ d._ ",
"d.d.j   u H.H.H.:                                                       % :.:.:.0   h d.s.",
") d.j   u H.H.H.>   = : : : : : : : : : : : : : : : : : : : : : : :     * ,.,.,.w   j d.d.",
"d.d.j   u H.H.F.>   v.F.F.F.F.F.F.F.F.F.H.H.F.F.F.F.F.F.F.F.F.F.F.m.    t S.G.G.u   j d.s.",
"d.d.j   u H.H.H.>   v.H.H.H.H.H.H.F.H.H.H.H.H.H.F.H.H.H.H.H.H.F.H.m.    > F.H.H.u   j d._ ",
"d.d.g   u H.H.F.>   v.H.H.H.H.H.H.H.H.H.H.H.H.H.H.H.H.H.H.H.H.H.F.A.    > F.F.H.u   j d.d.",
"8 4 g.A.A.H.H.F.>   v.H.H.m.u i e.H.H.r.i i i i i t.H.H.e.i u m.F.A.    > F.F.H.3.*.#.6 7 ",
"    b.H.H.H.G.F.>   v.H.H.m.    t H.H.e.          e.H.H.t     m.H.A.    > F.H.H.5.-.+.    ",
"    u.V.V.V.V.V.;   v.H.H.A.r.t.y.H.H.i.t.t.t.t.t.i.H.H.y.t.r.A.H.m.    : V.V.V.2.-.+.    ",
"    ..&.%.%.%.$.*   v.H.H.H.H.H.H.H.H.H.H.H.H.H.H.H.H.H.H.H.H.H.G.A.    * &.%.%.:.:.O.    ",
"    o.:.:.:.:.-.*   v.H.H.H.H.H.H.H.H.H.H.H.H.H.H.H.H.H.H.H.H.H.F.A.    * :.:.:.:.:.+.    ",
"    o.:.:.:.:.:.*   y.S.A.A.A.A.A.S.A.A.A.A.S.A.A.A.A.A.S.A.A.A.S.m.    * :.:.:.:.:.+.    ",
"    o.:.:.:.:.-.*                                                       * :.;.-.:.:.+.    ",
"    o.:.:.:.:.-.*                                                       * -.:.:.:.:.+.    ",
"    o.:.:.:.:.:.*         . # # O O O O # # # # # # # # # # # .         * -.:.:.:.:.+.    ",
"    o.:.:.:.:.-.*         s Q R R R R R Q R R R R R R R R R W s         * :.:.:.:.:.+.    ",
"    X.:.:.:.:.:.*         a W E E E E W ! ! ! ! ! W E E W E W a         * :.:.:.:.:.+.    ",
"L K p  . . . . .X   d Z Z p.N.M.N.N.N.P f f f f f P N.M.M.M.M.p.Z f     X  . . . . .p K L ",
"d.d.j               C ! ! h.H.H.G.H.H.e.          e.H.H.H.H.H.h.R T                 j d.d.",
"d.) h               C ! W h.G.H.H.H.H.e.          e.H.H.H.H.H.h.E Y                 j d.d.",
"L ~ l h h h h h o   C ! Q h.H.H.F.n.n.i           i n.n.F.H.H.h.R Y     o h h h h h J } } ",
"    K d.d.d.d.d.$   C ! ! h.H.H.S.                      S.H.H.h.R Y     $ d.d.d.d.d.} D F ",
"    K ) ) d.d.) $   C ! ! h.H.G.S.                      S.H.H.h.W Y     $ a.d.d.s._ } F F ",
"    o + 7 d.s.) $   C ! Q h.H.H.S.                      S.H.H.h.! Y     $ ) d.s.] ] G H F ",
"        6 d.s.) $   C ! ! h.H.G.S.                      S.H.H.h.! Y     $ ) s.s.] H F H H ",
"        4 d.s.) $   C E E h.H.H.S.                      S.H.H.h.! U     $ a.d.d.] F F H F ",
"    1 c n B B B @   , < < J ` h.`                       ` f.h.k < <     . 6 7 6 3 3 3 3 3 ",
"    2 v b A N N @         d ! ! T                       R ! ! s                           ",
"    2 v b A A N m m 3     5 Z Z V                       V Z I 5                     3 m m ",
"    2 v b A A A H H M                                                               m H H ",
"    2 v b A A A H H m                                                               m H H "
};
