/* XPM */
static char *result[] = {
/* columns rows colors chars-per-pixel */
"45 46 63 1 ",
"  c #9EBE1F",
". c #9EBF1F",
"X c #9FBF1F",
"o c #9FBF20",
"O c #9FC020",
"+ c #A0C020",
"@ c #A1C020",
"# c #A1C120",
"$ c #A1C121",
"% c #A2C121",
"& c #A2C221",
"* c #A3C222",
"= c #A3C322",
"- c #A4C322",
"; c #A5C423",
": c #A6C523",
"> c #A7C524",
", c #A7C624",
"< c #A8C624",
"1 c #A8C725",
"2 c #A9C725",
"3 c #A9C825",
"4 c #AAC826",
"5 c #ABC926",
"6 c #AECB27",
"7 c #AECC28",
"8 c #B0CD29",
"9 c #B1CE29",
"0 c #B2CE2A",
"q c #B2CF2A",
"w c #B4D02B",
"e c #B7D32C",
"r c #B8D32D",
"t c #B9D42D",
"y c #BAD52E",
"u c #BAD62E",
"i c #BCD72F",
"p c #BFDA30",
"a c #C1DB31",
"s c #C2DC31",
"d c #C2DC32",
"f c #C3DD32",
"g c #C4DD32",
"h c #C4DE33",
"j c #C7E034",
"k c #C8E134",
"l c #C8E135",
"z c #CAE235",
"x c #CAE335",
"c c #CBE436",
"v c #CCE436",
"b c #CCE536",
"n c #CDE536",
"m c #CDE537",
"M c #CDE637",
"N c #CEE637",
"B c #CEE737",
"V c #CFE737",
"C c #CFE738",
"Z c #D0E838",
"A c #D1E838",
"S c #D1E938",
"D c #D1E939",
/* pixels */
"ZZZZZZZZZZZZZZZZZZZZZZZZZZZZZZZZZZZZZZZZZZZZZ",
"ZZZZZZZZZZZZZZZZZZZZZZZZZZZZZZZZZZZZZZZZZZZZZ",
"ZZZZZZZZZZZZZZZZZZZZZZZZZZZZZZZZZZZZZZZZZZZZZ",
"ZZZZZZZZZZZZZZZZZZZZZZZZZZZZZZZZZZZZZZZZZZZZZ",
"ZZZZZZZZMmNZZZZZZZZZZZZZZZZZZZZZZZZZZZZZZZZZZ",
"ZZZZZZZZ2@qSZZZZZZZZZZZZZZZZZZZZZZZZZZZZZZZZZ",
"ZZZZZZZA1+qSZZZZZZZZZZZZZZZZZZZZZZZZZZZZZZZZZ",
"ZZZZZSSD2+qDSSZZZZZZZZZZZZZZZZZZSSZZZZZZZZZZZ",
"ZZZZM444%+=446ZZZZZZZZZZZZZZZZZM42hZZZZZZZZZZ",
"ZZZZn++++++++;ZZZZZZZZZZZZZZZZZn+XsZZZZZZZZZZ",
"ZZZZN888&++++=fggNZZZZZZZZZZbfga+otggkZZZZZZZ",
"ZZZZZSSD2+++++XX zZZZZZZZZZZa XX++oXX9SZZZZZZ",
"ZZZZZZZA1+++++++oxZZZZZZZZZZsX+++++++qSZZZZZZ",
"ZZZZZZZZ5*&+++**&xZZZZZZZZZZd&**+++++9VNNZZZZ",
"ZZZZZZZZCCaX+;VCCZZZZZZZZZZZZCCv++++++$$:ZZZZ",
"ZZZZZZZZZZsX+;ZZZZZZZZZZZZZZZZZn++++++++;ZZZZ",
"ZZZZZZZZZZa X-ZZZZZZZZZZZZZZZZZboX++++XX-ZZZZ",
"ZZZZZZZZZZmjjkZZZZZZZZZZZZZZZZZCjk7++7kjkZZZZ",
"ZZZZZZZZZZZZZZZZZZZZZZZZZZZZZZZZZSq++qSZZZZZZ",
"ZZZZZZZZZZZZZZZZZZZZZZZZZZZZZZZZZSy66ySZZZZZZ",
"ZZZZZZZZZZZZZZZZZZZZZZZZZZZZZZZZZZASSAZZZZZZZ",
"ZZZZZZZZZZZZZZZZZZZZZZZZZZZZZZZZZZZZZZZZZZZZZ",
"ZZZZZZZZZZZZZZZZZZZZZZZZZZZZZZZZZZZZZZZZZZZZZ",
"ZZZZZZZZZZZZZZZZZZZZZZZZZZZZZZZZZZZZZZZZZZZZZ",
"ZZZZZZZZZZZZZZZZZZZZZZZZZZZZZZZZZZZZZZZZZZZZZ",
"ZZZZZZZZZZZZZZZZZZZZZZZZZZZZZZZZZZZZZZZZZZZZZ",
"ZZZZZZZZZZZZZZZZZZZZZZZZZZZZZZZZZZZZZZZZZZZZZ",
"ZZZZZZZZZZZZZZZZZZZZZZZZZZZZZZZZZZZZZZZZZZZZZ",
"ZZZZZZZZljxZZZZZZZZZZZZZZZZZZZZZZZZZZZZZZZZZZ",
"ZZZZZZZA<X9SZZZZZZZZZZZZZZZZZZZZZZZZZZZZZZZZZ",
"ZZZZZZZA1+qSZZZZZZZZZZZZZZZZZZZZZZZZZZZZZZZZZ",
"ZZZZZCCZ1+0ZCCZZZZZZZZZZZZZZZZZZZZCCCCZZZZZZZ",
"ZZZZm=**++$**,ZZZZZZZZZZZZZZZZZZZSw**wSZZZZZZ",
"ZZZZn+oo+++++;ZAAZZZZZZZZZZZZZZZADq++qDAZZZZZ",
"ZZZZByyy-++++&yyymZZZZZZZZZZZZZByu2++2uyiZZZZ",
"ZZZZZAAS1+++++ooXxZZZZZZZZZZZZZn+o++++oo-ZZZZ",
"ZZZZZZZA1+++++++oxZZZZZZZZZZZZZn++++++++;ZZZZ",
"ZZZZZZZZ84>++#443cZZZZZZZZZZZZZM44=+++++-kkMZ",
"ZZZZZZZZASdX+;ZSSZZZZZZZZZZZZZZZSDq++++++X aZ",
"ZZZZZZZZZZsX+;ZZZZZZZZZZZZZZZZZZZSq+++++++XsZ",
"ZZZZZZZZZZs+#;ZZZZZZZZZZZZZZZZZZZSq@#++++#+sZ",
"ZZZZZZZZZZCmmMZZZZZZZZZZZZZZZZZZZZNmmpX+-mmCZ",
"ZZZZZZZZZZZZZZZZZZZZZZZZZZZZZZZZZZZZZa.O-ZZZZ",
"ZZZZZZZZZZZZZZZZZZZZZZZZZZZZZZZZZZZZZkeryZZZZ",
"ZZZZZZZZZZZZZZZZZZZZZZZZZZZZZZZZZZZZZZSSAZZZZ",
"ZZZZZZZZZZZZZZZZZZZZZZZZZZZZZZZZZZZZZZZZZZZZZ"
};
