/* XPM */
static char *cat_wfront1714676597[] = {
/* columns rows colors chars-per-pixel */
"40 40 35 1 ",
"  c black",
". c #222034",
"X c #45283C",
"o c #663931",
"O c #8F563B",
"+ c #DF7126",
"@ c #D9A066",
"# c #EEC39A",
"$ c #FBF236",
"% c #99E550",
"& c #6ABE30",
"* c #37946E",
"= c #4B692F",
"- c #524B24",
"; c #323C39",
": c #3F3F74",
"> c #306082",
", c #5B6EE1",
"< c #639BFF",
"1 c #5FCDE4",
"2 c #CBDBFC",
"3 c white",
"4 c #9BADB7",
"5 c #847E87",
"6 c #696A6A",
"7 c #595652",
"8 c #76428A",
"9 c #AC3232",
"0 c #D95763",
"q c #D77BBA",
"w c #8F974A",
"e c #8A6F30",
"r c #7FA45D",
"t c #4F6937",
"y c #566D41",
/* pixels */
"=t===tyt==tt=tyt=tt==tt===tt==tttttt====",
"===t==tt==tt==tt=tt=tyt==t====ttttyt==t=",
"==tyt=====yy========tyt=tyt=======tt=tyt",
"==tyt=====tt==-=yt==tyt=tt=tyt=======tyt",
"===t======tt=e@wtt===t==y@w=yt==tt===tyt",
"t=====tt==ttew#@et=tt==ew##ett==tyt==ttt",
"t====tyt==t-e@2#@-=yy==e@2#@e===ttt=====",
"t=tyttyt==y-w#q247=yy=-522#@e===========",
"t=tyttyt===e@#q22we===e42qq#wett=====ttt",
"t=tt==tt==-@qqq22@weee@#2qqq@w-tt=tt=tyt",
"==========y@#q#22#######2##q#w-==tyt=tyt",
"====tt===ew##222222222222222#@w-=tyt=tyt",
"ttt=yytt-e@#2224222222224422##@y==tt==t=",
"tyt=tttttw#222564222222256422#@ytt=====t",
"tyt====ttw#2225422222222254222@ytt=====t",
"tyt==t==-w#2225#22222222#@4222@y-ttttt=t",
"=t==tyt--w#222@+#2222222@+#222@y-tttyt=t",
"t===yyt=-w#222#$#2222222$$#22#@y=t=tyt=t",
"t===ttt=-e@#222#233242332#222#@y-==tyt=t",
"t======--e@@#222333442332222#@w--==tt==t",
"t=======tte@@#2333#42423322#@w-=t======t",
"====tytttt=eew#2333332332#@wee==tttttt=t",
"ttt=tyttyy==--e44422#22445e--===tyt=====",
"tyt=====tt==e66665555555666et===tyt==tt=",
"ttt========-w#2##2222222#24@e===tt===tyt",
"======tt=ty@#2222333333222#@@e==t====tyt",
"=====tyt==7#2222233333332#@@@e-======tyt",
"=t===tyt==6422#22333333325e@@e-======ttt",
"tyt===tt==6422542333333325-eee==ttt=====",
"tyt===tt=t7444642333333225----==tt=ttt=t",
"ttt===tt==y77--@#2333322#w-tttt=t==tyt=t",
"===t===t==yytt-w@########wywwwe--==ttt=t",
"t=tyt=====tttttew@weee4225-eewweey=====t",
"t=tyt=tt=====ty=ewe--74225---ewwwe-t===t",
"t=tt=tyt======tt=--==74225tyt----=yy==t=",
"=====tyt=========ttt=-4##5tyt=ttttyt=tyt",
"tyt==tyt===ttt========w@@wtyt====tyt=tyt",
"tyt===tt===tyt=ttt=====--=tt==tt==tt=tyt",
"tyt=tt=====tyyttyt=tt=ttt=tt==yyt=tt=ttt",
"tyt=tyt====tyyttyt=yy=====yt==yyttyt===="
};
