/* XPM */
static char *fbe5db8dfa6440e9f624adaffefc0e42TI1Fqba1YflRkWoB[] = {
/* columns rows colors chars-per-pixel */
"45 45 206 2 ",
"   c #000000",
".  c #0D0102",
"X  c #170602",
"o  c #161A01",
"O  c #270103",
"+  c #390000",
"@  c #2E1A03",
"#  c #1E2502",
"$  c #322A11",
"%  c #362C28",
"&  c #460000",
"*  c #4B0000",
"=  c #500000",
"-  c #4D140E",
";  c #5F0613",
":  c #650C1C",
">  c #522F08",
",  c #4D3009",
"<  c #5F2E13",
"1  c #633E0E",
"2  c #642815",
"3  c #520B29",
"4  c #780C24",
"5  c #7D142A",
"6  c #7A1932",
"7  c #7F3531",
"8  c #6E4610",
"9  c #667B11",
"0  c #747311",
"q  c #584932",
"w  c #0D174D",
"e  c #3E2B43",
"r  c #182877",
"t  c #264C79",
"y  c #5A4A44",
"u  c #724D4F",
"i  c #65544D",
"p  c #6D554E",
"a  c #766356",
"s  c #78655B",
"d  c #6C5565",
"f  c #831D38",
"g  c #921C37",
"h  c #99213F",
"j  c #893B36",
"k  c #943639",
"l  c #923F3A",
"z  c #834E00",
"x  c #845302",
"c  c #885614",
"v  c #885716",
"b  c #8C761C",
"n  c #8C5D2A",
"m  c #955231",
"M  c #A95338",
"N  c #B55D3A",
"B  c #876030",
"V  c #8E6030",
"C  c #8E633A",
"Z  c #8F7333",
"A  c #A77F3A",
"S  c #831B45",
"D  c #AD1E5D",
"F  c #9B234A",
"G  c #A72947",
"H  c #A52648",
"J  c #B52B4F",
"K  c #AD265E",
"L  c #B82C51",
"P  c #B32861",
"I  c #C52F56",
"U  c #C73058",
"Y  c #D0325A",
"T  c #D33367",
"R  c #DD3762",
"E  c #C8397A",
"W  c #E62F68",
"Q  c #E13864",
"!  c #E6376B",
"~  c #EA3B6A",
"^  c #F53E6E",
"/  c #FA386E",
"(  c #F53F71",
")  c #F93F70",
"_  c #AC554A",
"`  c #976D4D",
"'  c #996D48",
"]  c #A06448",
"[  c #BB5A73",
"{  c #9F7565",
"}  c #937A71",
"|  c #BD7963",
" . c #D55558",
".. c #C7644A",
"X. c #DB625B",
"o. c #E0655D",
"O. c #C5407C",
"+. c #F8446F",
"@. c #F94170",
"#. c #F94C74",
"$. c #F56E66",
"%. c #F96A69",
"&. c #F97068",
"*. c #EC6D75",
"=. c #778F15",
"-. c #78913E",
";. c #869617",
":. c #89A51A",
">. c #92AB1D",
",. c #97B61E",
"<. c #99B51E",
"1. c #9EBE1F",
"2. c #889121",
"3. c #95A824",
"4. c #9FBF20",
"5. c #9FB229",
"6. c #A6B62A",
"7. c #B2B42B",
"8. c #ACAE30",
"9. c #B5AA35",
"0. c #9FC020",
"q. c #A1C120",
"w. c #A8C725",
"e. c #ABC826",
"r. c #AECC28",
"t. c #B3C62E",
"y. c #B1CE2A",
"u. c #BECC2F",
"i. c #B5D12B",
"p. c #BAD52E",
"a. c #B6CC30",
"s. c #BECB31",
"d. c #BDD531",
"f. c #C1CF32",
"g. c #C4DB33",
"h. c #C4DA34",
"j. c #C7E034",
"k. c #CCE437",
"l. c #CFE738",
"z. c #D0E838",
"x. c #B0974C",
"c. c #A5B74E",
"v. c #91856C",
"b. c #9F8479",
"n. c #A68168",
"m. c #A3877B",
"M. c #96A967",
"N. c #D4B85D",
"B. c #C7856F",
"V. c #EA8278",
"C. c #F9847A",
"Z. c #D5BD79",
"A. c #B1C75A",
"S. c #BAD055",
"D. c #EFCD68",
"F. c #FACE73",
"G. c #FAD970",
"H. c #002F88",
"J. c #182B86",
"K. c #1F2F88",
"L. c #2D3B87",
"P. c #2C4E8D",
"I. c #366988",
"U. c #326290",
"Y. c #3E7E97",
"T. c #57749B",
"R. c #F9738D",
"E. c #3F8098",
"W. c #5290A4",
"Q. c #7499AB",
"!. c #79CEC2",
"~. c #998F8A",
"^. c #BF9880",
"/. c #B4978A",
"(. c #B7988C",
"). c #9FA290",
"_. c #B6A395",
"`. c #BDBDBD",
"'. c #C69D88",
"]. c #DD958A",
"[. c #F89489",
"{. c #CCA899",
"}. c #EAA598",
"|. c #F9A99C",
" X c #DBB6A7",
".X c #E3BAA9",
"XX c #FAAFB3",
"oX c #FADE8F",
"OX c #E8C0AF",
"+X c #EAC3B3",
"@X c #EFC7B8",
"#X c #F6CDBD",
"$X c #F9C9BA",
"%X c #BDBECD",
"&X c #DDBFC3",
"*X c #84DACA",
"=X c #9BDED1",
"-X c #CCCDCE",
";X c #D7D7D9",
":X c #FAD1C1",
">X c #E4DDD9",
",X c #DADAE3",
"<X c #DBE2E6",
"1X c #F3E8E8",
"2X c #F5F4F4",
"3X c #FFFEFE",
/* pixels */
"z.z.z.z.z.z.z.z.z.z.z.z.z.z.z.z.z.z.z.- = = = = = = b z.z.z.z.z.z.z.z.z.z.z.z.z.z.z.z.z.z.",
"z.z.z.z.z.z.z.z.z.z.z.z.z.z.z.l.l.l.l.2 ; < < < < ; b l.l.l.l.z.z.z.z.z.z.z.z.z.z.z.z.z.z.",
"z.z.z.z.z.z.z.z.z.z.z.z.z.z.z.0 = = & ) ) G.G.G.F.) R * * * 6.l.z.z.z.z.z.z.z.z.z.z.z.z.z.",
"z.z.z.z.z.z.z.z.z.z.z.z.z.g.h.Z 5 5 4 R.R.G.G.G.F.R.*.5 5 5 8.h.l.z.z.z.z.z.z.z.z.z.z.z.z.",
"z.z.z.z.z.z.z.z.l.l.l.z.z.2.* Q ) ) / 3X3XG.G.G.oX3X1X) ) ) G = s.z.z.z.z.z.z.z.z.z.z.z.z.",
"z.z.z.z.z.z.z.z.w.q.y.h.t.A h ~ ) ~ W ;X;XN.N.N.Z.;X&X! ~ ) U h 8.t.l.z.z.z.z.z.z.z.z.z.z.",
"z.z.z.z.z.z.z.z.w.q.y.6.= Y ) ) ) P P X             3 P T ) ) ) g = g.z.z.z.z.z.z.z.z.z.z.",
"z.z.z.z.z.z.z.z.w.q.y.6.= Y ) U L S S .             3 S F L Q ) g = g.z.z.z.z.z.z.z.z.z.z.",
"z.z.z.z.l.e.e.e.q.q.q.;.= Y ) 6                             U ) g = d.z.z.z.z.z.z.z.z.z.z.",
"z.z.z.z.l.q.q.q.q.q.q.;.= 6 h -                             6 h : = p.z.z.z.z.z.z.z.z.z.z.",
"z.z.z.z.l.y.y.y.q.q.q.;.= O                                     & = y.g.g.j.z.z.z.z.z.z.z.",
"z.z.z.z.z.z.z.z.w.q.q.1.<.0 * O   R ~ O   ~ ~ ~ R   f ~ J   + * ;.<.4.1.1.y.z.z.z.z.z.z.z.",
"z.z.z.z.z.z.z.z.w.q.q.q.q.0 =     ~ @.    ) ) ) ~   f ) I   + = >.q.q.q.q.y.z.z.z.z.z.z.z.",
"z.z.z.z.z.z.z.z.e.q.q.=.# o   R ^ ) ) ^ ^ ) ) ) ) ^ ^ ) ^ ^ H . # o ,.q.q.y.l.l.l.z.z.z.z.",
"z.z.z.z.z.z.z.z.l.l.g.=.      Q ) ) ) ) ) ) ) ) ) ) ) ) ) ) H       ,.q.q.q.q.q.w.z.z.z.z.",
"z.z.z.z.z.z.z.z.z.l.g.1.q.9   Q ) ) ) &.&.&.&.&.&.&.%.) ) ) H   >.q.q.q.q.q.q.q.w.z.z.z.z.",
"z.z.z.z.z.z.z.z.z.z.g.1.1.9   Q ) @.@.$.$.&.&.&.&.$.%.@.@.@.H   :.1.q.q.q.q.1.1.q.z.z.z.z.",
"z.z.z.z.z.z.z.z.z.z.l.3.      R ) &.&.    &.&.&.o.  j &.%.@.H       w.q.q.r.j.j.j.z.z.z.z.",
"z.z.z.z.z.z.z.z.z.l.h.c.i %   Q +.&.&.p i C.C.C.*.i ] &.%.+.G   y i 6.<.q.y.z.z.z.z.z.z.z.",
"z.z.z.z.z.z.z.z.z.s.c '.:Xm.  o.&.&.$.:X:X:X:X:X:X:XXX$.&.&._    X:X' c e.p.z.z.z.z.z.z.z.",
"z.z.z.z.z.z.z.z.z.s.c '.:Xb.  _  .[.[.#X:X:X:X:X:X:X$X[.V.X.j    X:X' c l.z.z.z.z.z.z.z.z.",
"z.z.z.z.z.z.z.z.z.s.c '.:Xb.      @X:X:X:X:X:X:X:X:X:X:X{.       X:X' c l.z.z.z.z.z.z.z.z.",
"z.z.z.z.z.z.z.z.z.s.c B.|.{   m.(.(.(.|.|.|.|.|.|.|.}.(.(.(.s   ].|.C c 7.7.z.z.z.z.z.z.z.",
"z.z.z.z.z.z.z.z.z.s.c ..&.M   .X:Xq   $.&.&.&.&.$.$.X.  /.:Xm.  X.&.m c c c z.z.z.z.z.z.z.",
"z.z.z.z.z.z.z.z.z.j.s.9.N '. Xm.} %   l l l l l l l 7   i } (. X| N ;X>XV c z.z.z.z.z.z.z.",
"z.z.z.z.z.z.z.z.z.z.z.7.c  X:Xs                             {.:Xn.z 2X3XC c z.z.z.z.z.z.z.",
"z.z.z.z.z.z.z.z.z.f.b b c ' `  X+X+X+X+X+X& * * u +X+X+X+X+X'.` >X2X3X3XC c z.z.z.z.z.z.z.",
"z.z.z.z.z.z.z.z.z.u.z z z x x OX:X:X:X:X:X& * * u :X:X:X:X:X^.x 1X3X3X3XC c z.z.z.z.z.z.z.",
"z.z.z.z.z.z.z.z.j._.3X3X3XXX^ _ V V n #X:XD K K [ :X.Xn V V  .@.#.#.] C k.l.z.z.z.z.z.z.z.",
"z.z.z.z.z.z.z.z.w._.3X3X3XXX) M c c x #X:XD K K [ :X.Xc c c  .) ) ) m c l.z.z.z.z.z.z.z.z.",
"z.z.z.z.z.z.z.z.w._.3X-X      r J.B x #X:X/ ) ) *.:X.Xc d K.E ) g * g.z.z.z.z.z.z.z.z.z.z.",
"z.z.z.z.z.l.l.z.w._.3X`.      r J.` C #X#X#.#.#.R.#X XB d P.O.( k > g.l.l.l.z.z.z.z.z.z.z.",
"z.z.z.z.l.q.q.q.q.:.              2X3Xn x :X:X:X+Xz v.*X*X*XW.H.S.z.i.q.q.i.z.z.z.z.z.z.z.",
"z.z.z.z.l.q.4.4.q.:.              2X3Xm.n.+X+X+X.Xn.).=X*X!.W.K.S.z.y.0.q.y.z.z.z.z.z.z.z.",
"z.z.z.z.l.p.p.p.q.:.              2X3X3X3Xz x x n.3X3X3X;XY.U.K.c.p.w.q.q.w.p.p.p.z.z.z.z.",
"z.z.z.z.z.z.z.z.w.:.              ;X,X<X<Xa s s ~.3X3X3X-XI.t r -.:.1.q.q.q.4.4.q.z.z.z.z.",
"z.z.z.z.z.z.z.z.w.:.              J.J.Y.E.E.E.E.Q.3X3X3X-X          ,.q.q.q.q.q.w.z.z.z.z.",
"z.z.z.z.z.z.z.z.y.>.              M.M.U.U.U.U.U.T.%X%X`.~.1 1 1 x.x.2.=.4.0.0.0.q.j.j.l.z.",
"z.z.z.z.z.z.z.z.z.t.              g.z.L.K.K.K.K.K.K.r   1 c c c D.G.q   1.0.0.0.q.1.1.g.z.",
"z.z.z.z.z.z.z.z.z.g.6.9       5.t.l.z.A.A.A.A.A.c.w e 8 1 , , , Z Z $   1.q.q.0.q.q.1.g.z.",
"z.z.z.z.z.z.z.z.z.z.g.=.      d.z.z.z.z.z.z.z.z.h.  , c 8               1.q.q.q.q.q.q.g.z.",
"z.z.z.z.z.z.z.z.z.z.l.g.h.h.h.l.z.z.z.z.z.z.z.z.h.  X @ @           a.d.l.d.1.q.q.l.l.l.z.",
"z.z.z.z.z.z.z.z.z.z.z.z.z.z.z.z.z.z.z.z.z.z.z.z.h.                  g.z.z.g.1.0.q.z.z.z.z.",
"z.z.z.z.z.z.z.z.z.z.z.z.z.z.z.z.z.z.z.z.z.z.z.z.z.l.t.      6.l.l.l.z.z.z.j.i.p.p.z.z.z.z.",
"z.z.z.z.z.z.z.z.z.z.z.z.l.l.z.z.z.z.z.z.z.z.z.z.z.z.t.      6.z.z.z.z.z.z.z.z.z.z.z.z.z.z."
};
