/* XPM */
static char *_f6d01512b2d4784e0a020dff73d9aafvcZslnenYyqenhek[] = {
/* columns rows colors chars-per-pixel */
"45 45 209 2 ",
"   c None",
".  c #000000",
"X  c #0A0201",
"o  c #01010A",
"O  c #010B1D",
"+  c #010217",
"@  c #130A06",
"#  c #270000",
"$  c #360000",
"%  c #21150D",
"&  c #2C1D15",
"*  c #331508",
"=  c #053B1A",
"-  c #38261A",
";  c #242B05",
":  c #031833",
">  c #031833",
",  c #091328",
"<  c #252525",
"1  c #2B2427",
"2  c #3C3C3C",
"3  c #313131",
"4  c #352F33",
"5  c #4E0000",
"6  c #460000",
"7  c #500000",
"8  c #580819",
"9  c #630C1D",
"0  c #4D3009",
"q  c #523412",
"w  c #6F3E0C",
"e  c #483A35",
"r  c #683930",
"t  c #6C0B2E",
"y  c #085227",
"u  c #527305",
"i  c #596414",
"p  c #4B6A04",
"a  c #5D4233",
"s  c #654734",
"d  c #65462C",
"f  c #6C4B1E",
"g  c #0A2E5A",
"h  c #17246E",
"j  c #142F72",
"k  c #131F60",
"l  c #583F47",
"z  c #575858",
"x  c #52484B",
"c  c #656565",
"v  c #7B737C",
"b  c #8E1C36",
"n  c #941C39",
"m  c #8F3039",
"M  c #875609",
"N  c #885717",
"B  c #875816",
"V  c #865625",
"C  c #8E5920",
"Z  c #9B4E3F",
"A  c #986D37",
"S  c #AD265E",
"D  c #A62459",
"F  c #B62F56",
"G  c #B52961",
"H  c #AB2D62",
"J  c #9F2545",
"K  c #E83A69",
"L  c #F63C6E",
"P  c #F93F70",
"I  c #D83464",
"U  c #966B4F",
"Y  c #966B50",
"T  c #986D52",
"R  c #996E51",
"E  c #A6795B",
"W  c #8E756C",
"Q  c #9E4643",
"!  c #D15D56",
"~  c #CB4C53",
"^  c #CB644D",
"/  c #E3655E",
"(  c #FA6F67",
")  c #FA7169",
"_  c #F47068",
"`  c #EF6D6B",
"'  c #CA636B",
"]  c #689008",
"[  c #72980D",
"{  c #688A0F",
"}  c #879821",
"|  c #95AA22",
" . c #AEBC3D",
".. c #A0BF20",
"X. c #B58038",
"o. c #C1883C",
"O. c #C98E3F",
"+. c #D89C38",
"@. c #D9A236",
"#. c #A1C121",
"$. c #AFC62A",
"%. c #CFE835",
"&. c #D0E936",
"*. c #D1E73B",
"=. c #D0E838",
"-. c #B9985D",
";. c #9E8379",
":. c #BB8666",
">. c #BB8768",
",. c #B88B71",
"<. c #C98F5A",
"1. c #D2954C",
"2. c #E09F47",
"3. c #F9B150",
"4. c #F2AC54",
"5. c #D19566",
"6. c #D99D77",
"7. c #D69D75",
"8. c #CA906E",
"9. c #FA8A77",
"0. c #DDA07A",
"q. c #E5A67F",
"w. c #E7AA7E",
"e. c #E4B677",
"r. c #D4DF4A",
"t. c #D4E148",
"y. c #DFC56B",
"u. c #DFC869",
"i. c #E6C96D",
"p. c #1E2E88",
"a. c #1B2B87",
"s. c #193A8A",
"d. c #243A89",
"f. c #333783",
"g. c #783384",
"h. c #154B8B",
"j. c #044A8B",
"k. c #294B8C",
"l. c #3A438D",
"z. c #366B92",
"x. c #326791",
"c. c #3D7D97",
"v. c #397A96",
"b. c #1E5FAD",
"n. c #175DAB",
"m. c #0A5CAD",
"M. c #3A65B6",
"N. c #1E5FAD",
"B. c #51518F",
"V. c #736E8B",
"C. c #4661A3",
"Z. c #1074D7",
"A. c #0D73D6",
"S. c #2877D5",
"D. c #2878D8",
"F. c #2675D4",
"G. c #3277D0",
"H. c #407FD9",
"J. c #8E738F",
"K. c #3F8098",
"L. c #368199",
"P. c #45869B",
"I. c #5198A3",
"U. c #6DB3AD",
"Y. c #58A0A8",
"T. c #76C5BA",
"R. c #4D85DB",
"E. c #648DD0",
"W. c #6D94DD",
"Q. c #67A8F8",
"!. c #5194EA",
"~. c #7CD3C5",
"^. c #7FD8C8",
"/. c #78CCC1",
"(. c #898989",
"). c #9B9A9A",
"_. c #B1938A",
"`. c #A7A7A7",
"'. c #B8B0B0",
"]. c #B9B8B8",
"[. c #B0A9AF",
"{. c #FA948B",
"}. c #C5A396",
"|. c #E8A781",
" X c #E9A880",
".X c #E7A680",
"XX c #CDB8B1",
"oX c #EBBBB0",
"OX c #F3CBBB",
"+X c #F9C4BB",
"@X c #E9C5AE",
"#X c #99B3DE",
"$X c #81D8C8",
"%X c #B9D0F8",
"&X c #C2C2C2",
"*X c #CAC9C8",
"=X c #D7D5D3",
"-X c #F9D1C1",
";X c #FDDAD8",
":X c #CAD4EC",
">X c #C6CFE7",
",X c #D9F1EB",
"<X c #E4E4E4",
"1X c gray91",
"2X c #FCF3EF",
"3X c #F5F5F5",
"4X c #FCFCFC",
"5X c #F7F6F5",
"6X c #E8F6F3",
/* pixels */
". . u ] [ #.#.#.%.&.u.|. X X X X0.. . 7 7 7 7 7 7 # . . 0. X X X Xe.%.=.=.=.=.=.=.=.=.=.=.",
". . u ] [ #.#.#.%.%.u. X X X X|.8.# # n Z A N N J 9 # . :.8. Xq.8.5.$.&.&.=.=.=.=.=.=.=.=.",
". . u ] [ #.#.#.y.y.-.Y Y Y Y U 5 5 6 P 9.i.@.+.P n 5 . . . Y U . . . y.u.*.*.=.=.=.=.=.=.",
". . u ] [ #.#.#.w. XR . . . 5 8 S K L +.@X4X4X2X+./ L . `.4X< z 5Xv . |.w.*.=.=.=.=.=.=.=.",
". . p { {  . . .7.6.W g g g 8 9 G K L +.@X4X4X5X+./ L . `.4Xx c 4Xv & 7.7.r.r.r.*.=.=.=.=.",
". . . . a  X X.X& . n.D.M.5 S G P b . . . . . . . . . . `.4X4X5X. N.. . & .X|.|.t.=.=.=.=.",
". . . . a  X Xq.- . b.D.M.5 S S J 9 . . . . . . . . . . `.4X`.).. j . . - q. X|.t.=.=.=.=.",
". . % & s q.q.q.4 O N.D.M.5 S S . . . . . . . . . . . . `.4X1 . . . . , 4 q.q.q.r.*.*.=.=.",
". . :.q.7.% & 1 F.F.!.Q.E.7 . . . . . . . . . . . . . . . . . z 4X4X4X. F.1 & % 6.w.u.&.=.",
". . :. X6.. . O A.A.!.Q.E.7 X . . v (.(.W m m m (.(.(.. z (.(.).<X4X4X. F.O . . 6. Xu.%.&.",
":.:.6. X6.. . < >X:X#XQ.E.7 X . . =X4X4X;X) ) 9.4X4X4X. `.4X4X3X. <X4X. F.O . . 6. Xe.u.y.",
" X X X X6.. . < 3X4X%X` ' X / ` OX2X4Xx _.+X+X+Xz <X4X. `.4Xc z . x z . F.O . . 6. X X X X",
" X X X X6.. . < 3X4X%X) ! . _ ) -X2X4X. ;.-X-XOX. <X4X. `.4X2 < < < < . F.O . . 6. X X X X",
" X X8.:.,.`.`.`.*X*X#X) ! . OX-X-X2X4X. ;.OX-XOX. <X4X. `.4X4X4X4X4X4X. b.h.h.j.>.:.8. X X",
" X XY . c 4X4X4X3 . . ) ! . ;._.-X+X+X}.XX-X-XOX}.oX+X}.'.'.'.'.'.'.'.. , D.D.D.g . Y  X X",
" X XT . c 4X4X5X2 . < ) ! . . 4 -X{.( -X-X-X-X-X-X{.) -X}.7 5 5 6 5 7 . > G.G.R.g . T  X X",
" X XT . c 4X5X5X2 . ].) ! . OXOX. . . ) ( ( ( ( ( m . . # 5 S G P b 7 . 2 3X5X5Xc . T  X X",
"|. XT . c 4X5X5X2 . &X{.8.* OXOX. . . / / / / / / r . . $ 5 S G P b 7 . 2 5X4X4Xc . T  X X",
" X XY . c 4X4X5X2 . &X4X=XB OXOX. . . . . . . . . . . . $ 5 S G P b 7 . 2 5X4X4Xc . U  X X",
"s r XX<X1X5X4X5X2 . &X4X3X*XR E @XW . . . . . . . . . @X_.5 S G P b 7 . 2 5X4X4XE.F.C.d s ",
". . *X4X4X4X4X5X2 . &X4X5X=XB A -XW . X X X X X X X . -X}.5 S G P b 7 . 2 5X4X4XW.D.b.. . ",
". . [.:X:X:X:X:X3 . &X4X5X<X).).M B B ) ) ) ) ) ) ) ) $ t G G G P b 7 . 3 :X:X:XR.D.b.. . ",
". . m.Z.Z.Z.Z.Z.: . &X4X4X4X4X3Xw ~ ~ ^ ^ ^ ^ ^ ^ ^ ^ w m G I I F _.$ . : Z.Z.Z.D.D.b.. . ",
". . b.D.D.D.D.S.: . &X4X4X4X4X3X5 I P M M B B B M M M B Z S P L 5 *X. . : S.D.D.D.D.b.. . ",
". . b.D.D.D.D.S.: . '.<X<X<Xr 9 P J.P.K.V.G G H K.K.L.P P P P L 5 ].. . : S.D.D.D.D.b.. . ",
". . b.D.D.D.D.S.: . . . . . 5 9 L J.K.I.V.D D H I.P.L.P P P L K 5 # . . : S.D.D.D.D.b.. . ",
". . b.D.D.D.D.S.: . . . . . . * S V.c.$XU.7 7 a $XY.L.P P P G D 7 # . . : S.D.D.D.D.b.. . ",
". . b.D.D.D.D.S.: . . . (.1X1X<XV.U./.$X~.T.T.T.$X/./.J.V.g.S D # X . . : S.D.D.D.D.b.. . ",
". . b.D.D.D.D.S.: . . . ).4X4X4Xv.T.^.$X$X$X$X$X$X$X$Xv.x.a.S H . . . . : S.D.D.D.D.b.. . ",
". . n.D.D.D.D.D.> . . . ).4Xl.B.4X4X4X^.$X$X$X$X$X6X4X4X,X$Xs.f.. . . . > D.D.D.D.D.n.. . ",
":.:.v h.h.h.h.h.O . A . ).4XB.B.4X4X4X^.$X$X$X$X$X6X4X4X,X$Xd.B.O.X.. . O h.h.h.h.h.v :.:.",
" X XT . . . . . . . o.. ).4XB.B.4X4X4X^.$X$X$X$X$X6X4X4X,X$Xd.B.3.2.. . . . . . . . T  X X",
" X XT . . . . . . . o.3.1.< p.d.P.T.$X$X$X^.$X$X$X$X$X$X$X$Xd.B.3.2.. . . . . . . . T  X X",
":.:.E Y Y Y Y Y % . o.3.1., d.k.P.T.$X~.~.~.~.~.~.^.$X$X$X$Xk.B.4.2.. . % Y Y Y Y Y -.y.y.",
". . :. X X X X X- . o.3.5.p.c.P.$X$X$Xc.K.K.K.K.K.T.$X$X$X$XP.c.p.<.. . -  X X X X Xy.%.&.",
". . :.q.q. X Xq.- . o.3.5.p.c.P.$XU.Y.k.k.k.k.k.k.P.I.$X$X$XP.c.p.<.. . - q. X Xw.w.u.&.=.",
". . % & s  X Xq.- . o.3.5.p.c.P.$XY.K.p.p.p.p.p.p.z.c.$X$X$XP.c.p.<.. . - q. X|.r.*.*.=.=.",
". . . . a  X Xq.- . o.3.5.p.c.K.c.c.K.p.h . . . . h a.c.c.c.K.c.p.<.. . - q. X|.t.=.=.=.=.",
". . . . a  X X.X- . o.3.5.p.z.z.z.z.z.p.h . . . . k h z.z.z.z.x.p.<.. . -  X X Xt.=.=.=.=.",
". . p { {  . . .; . q f x p.p.p.p.p.p.p.h . . . . . . p.p.p.p.p.p.l . . @ s s s i i i i i ",
". . u ] [ #.#...; . . . o + V V V V V + + . . . . . . + q V V V V 0 . . . . . . . . . . . ",
". . u ] [ #.#...} } i . & e N N N N N . . . . . . . . . q N N N N a e . . . . . . . i } } ",
". . u ] [ #.#.#.=.=.| . W -XA N N N N . . . . . . . . . q N N N N oX-X. . . . . . . } =.=.",
". . u ] [ #.#.#.%.=.} . x W q 0 0 0 0 . . . . . . . . . * 0 0 0 0 W W . . . . . . . } =.=.",
"                                            y y y y y = =                                 "
};
