/* XPM */
static char *exit_withcat1714676597[] = {
/* columns rows colors chars-per-pixel */
"40 40 35 1 ",
"  c black",
". c #222034",
"X c #45283C",
"o c #663931",
"O c #8F563B",
"+ c #DF7126",
"@ c #D9A066",
"# c #EEC39A",
"$ c #FBF236",
"% c #99E550",
"& c #6ABE30",
"* c #37946E",
"= c #4B692F",
"- c #524B24",
"; c #323C39",
": c #3F3F74",
"> c #306082",
", c #5B6EE1",
"< c #639BFF",
"1 c #5FCDE4",
"2 c #CBDBFC",
"3 c white",
"4 c #9BADB7",
"5 c #847E87",
"6 c #696A6A",
"7 c #595652",
"8 c #76428A",
"9 c #AC3232",
"0 c #D95763",
"q c #D77BBA",
"w c #8F974A",
"e c #8A6F30",
"r c #7FA45D",
"t c #4F6937",
"y c #566D41",
/* pixels */
"=t===tyt==tt=tyt=tt=--t===tt==tttttt====",
"===t==tt==tt==tt=ty-e-e==t====ttttyt==t=",
"==tyt=====yy======e-e-eetyt=======tt=tyt",
"==tyt=====tt===ttee-e-ee-yttyt=======tyt",
"===t======tt===t-ee-e-ee--=tyt==tt===tyt",
"t=====tt==tt===ee777e-ee-eetyt==tyt==ttt",
"t====tyt==tt==eee677e--eeeeeyt==ttt=====",
"t=tyttyt==yy=eeee67-e-eeeee-e===========",
"t=tyttyt==ttee-ee7e-e-eeee-ee-tt=====ttt",
"t=tt==tt===eeeee-ee-e-ee-eteeeett=tt=tyt",
"==========ee-eeee-e-e-ee-eeeeeee=tyt=tyt",
"====tt===-ey-eeeeee-e--eyeee-eee-tyt=tyt",
"ttt=yytte-eee--eeee-e--eeeee-eeeeett==t=",
"tyt=tttee--eee-eeee-e-eeeeteeee-ee-====t",
"tyt===eeeeeeeeee-ee-;-eee-eeee-eeeee===t",
"tyt==eeeeee-yeeeee-wwweyteeey-eee-ee=t=t",
"=t==teee--ee-eeew@e@@@@e@@ee--eeeeeeet=t",
"t===yeeee-eee-ee#2@w0@@w#2w--eee-eeett=t",
"t===teyeetteee-w#246-;e42q@-eee-eeeeet=t",
"t====e-eeeeteee@q22@eew#2q@@eeeeeeee-==t",
"t====-e-eeeee-w#222####222#@eeeee-tee==t",
"====teeeeee--e@222222222222#e-eeeteeet=t",
"ttt=teeee-eeww#2254222225422weteeeee-===",
"tyt==eeee--w@w#22@222222#422www-eeee-tt=",
"ttt==e-ee-eOow#22@#22222@#22w-Ooeeeeetyt",
"=====eee-e---e#22##22222##2#w--eet-e-tyt",
"=====eet--;;-e@#2223243322##e-;----eetyt",
"=t===-7eeeeeeee@#23222232#@w6677767--ttt",
"tyt===yeeyeeeee-e42222224w-;;566766-====",
"tyt===teeeeeeeeew555555555e..767766ttt=t",
"ttt===teeeeeeee@#222222222@y.;66766tyt=t",
"===t==t7---;--w#2#233333###@o;67;67ttt=t",
"t=tyt=t6;;;;;e@@@52333334w@#e;67766====t",
"t=tyt=t6-;o66e@w-523333347w@w-67766t===t",
"t=tt=ty6-;;77:e67w######@57ewe76766y==t=",
"=====ty6-;7667O6y@#@@@@#@yyewe66767t=tyt",
"tyt==tyt-;77X757X@#@O-w#@ywwy-===ttt=tyt",
"tyt===tt-;7Xoo7Xow#@--w#@o5y==tt==tt=tyt",
"tyt=tt==-;7;;;7;-e@w==e@wO@6==yyt=tt=ttt",
"tyt=tyt=-=;;;;;;;---y==---tt==yyttyt===="
};
