/* XPM */
static char *cat_left1714676597[] = {
/* columns rows colors chars-per-pixel */
"40 40 35 1 ",
"  c black",
". c #222034",
"X c #45283C",
"o c #663931",
"O c #8F563B",
"+ c #DF7126",
"@ c #D9A066",
"# c #EEC39A",
"$ c #FBF236",
"% c #99E550",
"& c #6ABE30",
"* c #37946E",
"= c #4B692F",
"- c #524B24",
"; c #323C39",
": c #3F3F74",
"> c #306082",
", c #5B6EE1",
"< c #639BFF",
"1 c #5FCDE4",
"2 c #CBDBFC",
"3 c white",
"4 c #9BADB7",
"5 c #847E87",
"6 c #696A6A",
"7 c #595652",
"8 c #76428A",
"9 c #AC3232",
"0 c #D95763",
"q c #D77BBA",
"w c #8F974A",
"e c #8A6F30",
"r c #7FA45D",
"t c #4F6937",
"y c #566D41",
/* pixels */
"=t===tyt==tt=tyt=tt==tt===tt==tttttt====",
"===t==tt==tt==tt=tt=tyt==t====ttttyt==t=",
"==tyt=====yy==-====---t=tyt=======tt=tyt",
"==tyt=====tt=ewett=w@we=tyttyt=======tyt",
"===t======tt-e@we=74#@wett=tyt==tt===tyt",
"t=====tt==tt-e@@w-742#@w-==tyt==tyt==ttt",
"t====tyt==tt-5q@@w7q22#@we=tyt==ttt=====",
"t=tyttyt==yy-5qq@w@qq22#@e-=============",
"t=tyttyt==tte5qq55##qq22#wee==tt=====ttt",
"t=tt==tt===yw@#2222##q222#@wytttt=tt=tyt",
"==========e@#22222222222222#@e===tyt=tyt",
"====tt===-5#2222242222222222#5e==tyt=tyt",
"ttt=yytt-y5222224664222222222#w-==tt==t=",
"tyt=ttttt42222222464222222222#@-tt=====t",
"tyt====t-42222222#04222222442#@-tt=====t",
"tyt==t==-+#22222#+@2222224542#@-tytttt=t",
"=t==tyt=-+#22222#$$2222222222#@-tyttyt=t",
"t===yyt=-w#244332222222222442#@-tt=tyt=t",
"t===ttt=-e#244233222222224442@e-===tyt=t",
"t========-er4443332222222222#w-====tt==t",
"t=======tt=y542333########45we==t======t",
"====tytttt==-544##@@@@@@@we-=t==tttttt=t",
"ttt=tyttyy====7655555556e-======tyt=====",
"tyt=====tt====642222222#@e===-==tyt==tt=",
"ttt===========622332242246==t@w=tt===tyt",
"======tt=ttt==623332442226==y@@-t====tyt",
"=====tyt==yyt=6233344222#e=ty@@-=====tyt",
"=t===tyt==tt==623344222#w-==y@@-=====ttt",
"tyt===tt=====t64226422#we--ew@w-ttt=====",
"tyt===tt=ttt==tO445@##ww@e-w@@w-tt=ttt=t",
"ttt===tt==yyt=e@@@@wee@@@ew@@ee=t==tyt=t",
"===t===t==yy=ew@@ew@@@#@@eewee=====ttt=t",
"t=tyt=====tt-e@@w--@####@e---=yy=======t",
"t=tyt=tt====-e@@w-tyw###@@e-==yytttt===t",
"t=tt=tyt=====eeeetytew@@@eeyt=yyttyy==t=",
"=====tyt======--=tyt=-www-tyt=ttttyt=tyt",
"tyt==tyt===ttt========---=tyt====tyt=tyt",
"tyt===tt===tyt=ttt====tyt=tt==tt==tt=tyt",
"tyt=tt=====tyyttyt=tt=ttt=tt==yyt=tt=ttt",
"tyt=tyt====tyyttyt=yy=====yt==yyttyt===="
};
