/* XPM */
static char *a72c9d75ae684ed9877603eef82cce4cbrnbeprNIPvHZuna[] = {
/* columns rows colors chars-per-pixel */
"45 45 208 2 ",
"   c #000000",
".  c #090702",
"X  c #170202",
"o  c #131702",
"O  c #271509",
"+  c #1D2203",
"@  c #212703",
"#  c #382204",
"$  c #2D3306",
"%  c #292320",
"&  c #4D0000",
"*  c #500000",
"=  c #521201",
"-  c #5E0912",
";  c #4D1011",
":  c #67071F",
">  c #6A1F1C",
",  c #442906",
"<  c #462E08",
"1  c #523007",
"2  c #58360B",
"3  c #682F0D",
"4  c #570E2C",
"5  c #650923",
"6  c #6F332E",
"7  c #445208",
"8  c #62450D",
"9  c #744A10",
"0  c #7E5015",
"q  c #5C6F0E",
"w  c #777517",
"e  c #5D4735",
"r  c #724F3C",
"t  c #3E377F",
"y  c #7E1843",
"u  c #473A7A",
"i  c #5D4C46",
"p  c #5F5F5F",
"a  c #78514D",
"s  c #6E5C56",
"d  c #624666",
"f  c #696C6D",
"g  c #881931",
"h  c #823733",
"j  c #844F00",
"k  c #865202",
"l  c #87550F",
"z  c #89570F",
"x  c #865614",
"c  c #885716",
"v  c #885916",
"b  c #895719",
"n  c #8B6519",
"m  c #917215",
"M  c #895622",
"N  c #975A27",
"B  c #915A35",
"V  c #9A6F2C",
"C  c #9A712F",
"Z  c #8A653B",
"A  c #93673B",
"S  c #A57339",
"D  c #951F5E",
"F  c #AF135B",
"G  c #99214D",
"H  c #9F2257",
"J  c #A42442",
"K  c #AB255D",
"L  c #A92B58",
"P  c #B1265E",
"I  c #B93358",
"U  c #8D3474",
"Y  c #AF2760",
"T  c #AD2C6C",
"R  c #B02760",
"E  c #B32861",
"W  c #BD2B62",
"Q  c #B83261",
"!  c #A7357F",
"~  c #C32D54",
"^  c #C92F65",
"/  c #CD3066",
"(  c #DB3563",
")  c #E8396A",
"_  c #F63D6F",
"`  c #ED3E73",
"'  c #FA3F70",
"]  c #9B4D4C",
"[  c #AE4C46",
"{  c #A45A42",
"}  c #B85045",
"|  c #BB534D",
" . c #946E4E",
".. c #9B7455",
"X. c #A2456F",
"o. c #867F61",
"O. c #AE6A67",
"+. c #CB455A",
"@. c #CD654E",
"#. c #E66C5D",
"$. c #FA4271",
"%. c #EB6A61",
"&. c #F06E63",
"*. c #F96D65",
"=. c #F97068",
"-. c #EA7C73",
";. c #738A15",
":. c #63847A",
">. c #7E8F76",
",. c #89A31B",
"<. c #92AF1C",
"1. c #9DB51F",
"2. c #9FBF1F",
"3. c #8B9D21",
"4. c #A88B33",
"5. c #8CA62F",
"6. c #8EA82F",
"7. c #9DAB27",
"8. c #9EB626",
"9. c #9FBF20",
"0. c #A7B329",
"q. c #AAB82A",
"w. c #B6BC2E",
"e. c #B0B432",
"r. c #CC923B",
"t. c #D59D39",
"y. c #9FC020",
"u. c #A1C121",
"i. c #A8C725",
"p. c #ABC926",
"a. c #B2C22D",
"s. c #B2CE2A",
"d. c #BCC82F",
"f. c #B6D22C",
"g. c #BAD52E",
"h. c #BACC30",
"j. c #BED531",
"k. c #C1D533",
"l. c #C3DB32",
"z. c #C9DF36",
"x. c #C7E034",
"c. c #CCE436",
"v. c #CFE738",
"b. c #D0E838",
"n. c #A48542",
"m. c #918674",
"M. c #A0826B",
"N. c #A68A7F",
"B. c #D59640",
"V. c #CEA34A",
"C. c #F9956F",
"Z. c #E78378",
"A. c #F9837A",
"S. c #B0C255",
"D. c #ECCB68",
"F. c #F3D26C",
"G. c #F9D870",
"H. c #001584",
"J. c #0D2F88",
"K. c #1A2387",
"L. c #1C2F88",
"P. c #323383",
"I. c #35488B",
"U. c #2C558E",
"Y. c #336691",
"T. c #366D93",
"R. c #3D7D97",
"E. c #535996",
"W. c #5B6A80",
"Q. c #4D788F",
"!. c #9D6F8C",
"~. c #3E8199",
"^. c #649085",
"/. c #5497A5",
"(. c #5FA9AD",
"). c #6BB4B4",
"_. c #7CCEBE",
"`. c #7BD0C4",
"'. c #7FD9C8",
"]. c #939291",
"[. c #AE9687",
"{. c #AF9788",
"}. c #B59A91",
"|. c #81A59C",
" X c #BBA99D",
".X c #95ADAB",
"XX c #B2B2B2",
"oX c #FA9B97",
"OX c #F5A89C",
"+X c #C7B9B0",
"@X c #F1B1A6",
"#X c #F9BFB0",
"$X c #CDC0B9",
"%X c #F0C8B9",
"&X c #A4B9C4",
"*X c #80D8C8",
"=X c #B1DED4",
"-X c #AEE3D8",
";X c #B9E6DE",
":X c #DFDFDF",
">X c #F9D1C1",
",X c #FAD8CB",
"<X c #F8EBCF",
"1X c #C1E9E0",
"2X c #F0F3E7",
"3X c #FAF6F5",
"4X c #F7F9F7",
"5X c #FFFFFF",
/* pixels */
"b.b.b.b.b.b.b.b.b.b.b.b.b.b.b.b.b.w * * * * * * * j.b.b.b.b.b.b.b.b.b.b.b.b.b.b.b.b.b.b.b.",
"b.b.b.b.b.b.b.b.b.b.b.b.b.b.b.v.a.S J J { n.J J J e.a.a.k.b.b.b.b.b.b.b.b.b.b.b.b.b.b.b.b.",
"b.b.b.b.b.b.b.b.b.b.b.b.b.b.b.x.* ( ' _ C.G.$.' ' g & & 7.b.b.b.b.b.b.b.b.b.b.b.b.b.b.b.b.",
"b.b.b.b.b.b.b.b.b.b.b.b.b.b.b.x.* L F 5X<XG.t.B.E ) _ _ I 1 b.b.b.b.b.b.b.b.b.b.b.b.b.b.b.",
"b.b.b.b.b.b.b.b.v.v.v.b.b.b.x.l.& G F 4X<XF.t.r.K ) _ _ ~ : z.x.b.b.b.b.b.b.b.b.b.b.b.b.b.",
"b.b.b.b.b.b.b.b.i.u.s.b.b.b.$                     H R R ( $.* w b.b.b.b.b.b.b.b.b.b.b.b.b.",
"b.b.b.b.b.b.b.b.i.u.s.b.h.w o                     4 4 4 G ^ ( +.w z.b.b.b.b.b.b.b.b.b.b.b.",
"b.b.b.b.b.b.b.b.i.u.s.b.a.                              y R ' ) & l.b.b.b.b.b.b.b.b.b.b.b.",
"b.b.b.b.v.p.p.p.u.u.u.p.,.                                  K Y R 5 * b.b.b.b.b.b.b.b.b.b.",
"b.b.b.b.v.u.u.u.u.u.u.u.<.;.+     ].XXXX}.[ XXXXXXO.[       K R R 5 = b.b.b.b.b.b.b.b.b.b.",
"b.b.b.b.v.s.s.s.u.u.u.u.u.u.@     :X5X5X,X*.5X5X5XoX=.      R R F : = l.l.x.b.b.b.b.b.b.b.",
"b.b.b.b.b.b.b.b.i.u.u.u.u.u.2.2.2.2X5X  N.>X% p 5XoX=.=.|   . s >XA.=.2.2.s.b.b.b.b.b.b.b.",
"b.b.b.b.b.b.b.b.i.u.u.u.u.u.1.8.S.2X5X  N.>X% p 5XOXA.=.|     s >XZ.%.e.q.s.b.b.b.b.b.b.b.",
"b.b.b.b.b.b.b.b.p.u.u.u.u.u.v A >X3X5X  [.>X% p 5X,X>X*.|     s >X..b =.V.s.v.v.v.b.b.b.b.",
"b.b.b.b.b.b.b.b.v.v.l.2.u.i.n A %X,X,X%X@XA.%.-.,X>X>X> ;     6 A.B b =.V.u.u.u.i.b.b.b.b.",
"b.b.b.b.b.b.b.b.b.b.l.2.u.i.n A >X>X>X>X@X=.=.A.%X>X>X  .   X 6 =.N b =.V.u.u.u.i.b.b.b.b.",
"b.b.b.b.b.b.b.b.b.b.l.2.2.u.n N *.*.*.*.*.=.b 0   @X>X>X}.  =.=.=.=.=.u.u.u.2.2.u.b.b.b.b.",
"b.b.b.b.b.b.b.b.b.b.v.x.s.3.8 3 [ [ [ [ [ [ 2 2   m.[.OXZ.@.=.%.[ [ [ u.u.s.x.x.x.b.b.b.b.",
"b.b.b.b.b.b.b.b.b.b.b.b.a.                            =.=.=.=.%.      u.u.s.b.b.b.b.b.b.b.",
"b.b.b.b.b.b.b.b.b.b.b.b.b.b.$                 i >X>X>X*.=.=.      l.g.p.p.g.b.b.b.b.b.b.b.",
"b.b.b.b.b.b.b.b.b.b.b.b.c.k.2 , , , , h h h h ] #X#X#X*.&.#.  . X a.h.b.b.b.b.b.b.b.b.b.b.",
"b.b.b.b.b.b.b.b.b.b.b.b.d.x c c x c x =.=.=.=.=.=.=.=.=.@.c   X & * = b.b.b.b.b.b.b.b.b.b.",
"b.b.b.b.b.b.b.b.b.b.b.n  X3XA  .3X{.c N N N > > > L Q Q P L K K K K K 8 q.b.b.b.b.b.b.b.b.",
"b.b.b.b.b.b.b.b.b.b.b.c  X5X ...5X}.A M M M - - ; H Y E E E E E E R Y & 0.b.b.b.b.b.b.b.b.",
"b.b.b.b.b.b.b.b.b.b.b.c  X5X5X4Xk :X5XH.! $.' ` L.L.J.' ' ' ' ' ' W K & 0.b.b.b.b.b.b.b.b.",
"b.b.b.b.b.b.b.b.b.b.b.c  X5X5X3Xl .X&XD T / !.!.T.U U / +.} } } } P K & 0.b.b.b.b.b.b.b.b.",
"b.b.b.b.b.b.b.b.b.b.b.c  X5X5X4Xk W.~.P P F Q.R.~.X.R R ] b j j j L R & 0.b.b.b.b.b.b.b.b.",
"b.b.b.b.b.b.b.b.b.b.b.b.d.j j Z *Xf & & ^.'.*X_.* & & x c j 5X5X5XM.x & 0.b.b.b.b.b.b.b.b.",
"b.b.b.b.b.b.b.b.x.x.x.b.k.7.a f ;X|.:.:..X;X;X=X:.e 3  X X X5X5X5X+X X3 q.b.b.b.b.b.b.b.b.",
"b.b.b.b.b.b.b.b.i.2.s.b.v.b.I.E.5X-X*X*X1X5X5X4X*Xo.k 5X5X5X5X5X5X5X5Xk w.b.b.b.b.b.b.b.b.",
"b.b.b.b.b.b.b.b.i.q.s.b.d.n M B I._.*X*X1X5X5X4X*Xo.k 5X5X5X5X5X5X5X5Xk w.b.b.b.b.b.b.b.b.",
"b.b.b.b.b.v.v.b.i.q.s.z.w.c V A P.).`.*X;X4X4X4X*Xm.Z 4X4X5X5X5X5X4X3Xm w.v.b.b.b.b.b.b.b.",
"b.b.b.b.v.u.u.u.u.u.u.  1 x F.F.x u K.*X*X'.'.'.*X*X*Xk $X5X5X5X5XM.x u.u.f.b.b.b.b.b.b.b.",
"b.b.b.b.v.u.9.9.u.u.u.  O , 4.4.c r a Q.(.*X*X*X*X(./.Q.].{.{.{.{.e < u.u.s.b.b.b.b.b.b.b.",
"b.b.b.b.v.g.g.g.u.u.u.      x c c c z L./.*X*X*X*X/.~.~.f x x x c # . y.u.i.g.g.g.b.b.b.b.",
"b.b.b.b.b.b.b.b.i.u.u.      x c c c z L.U.R.R.R.R.R.~.~.Y.L.L.t c c c   ;.u.9.9.u.b.b.b.b.",
"b.b.b.b.b.b.b.b.i.u.u.;.q   2 8 c c z L.U.Y.Y.Y.Y.Y.Y.Y.U.L.L.u c c c   q u.u.u.i.b.b.b.b.",
"b.b.b.b.b.b.b.b.s.p.i.u.,.    O c c z L.L.L.L.L.L.L.L.L.L.L.L.t x c c     u.u.u.u.x.x.v.b.",
"b.b.b.b.b.b.b.b.b.b.l.2.,.        9 c b.b.b.b.b.b.f L.L.d b b S G.C c     u.u.u.u.2.2.l.b.",
"b.b.b.b.b.b.b.b.b.b.l.2.,.7 o     n m b.b.b.b.b.b.>.W.W.s 0 0 C D.C c     u.u.u.u.u.2.l.b.",
"b.b.b.b.b.b.b.b.b.b.l.u.u.i.$     h.b.b.b.b.b.b.b.b.b.b.7.    # c c c     u.u.u.u.u.u.l.b.",
"b.b.b.b.b.b.b.b.b.b.v.v.v.v.l.l.l.v.b.b.b.b.b.b.b.b.b.b.x.l.l.a.# # # k.j.j.2.u.u.v.v.v.b.",
"b.b.b.b.b.b.b.b.v.b.b.b.b.b.b.b.b.b.b.b.b.b.b.b.b.b.b.b.b.b.b.k.. . o b.b.l.2.y.u.b.b.b.b.",
"b.b.b.b.b.b.b.b.v.b.b.b.b.b.b.b.b.b.b.b.b.b.b.b.b.b.b.b.b.b.b.b.b.b.b.b.b.x.f.f.g.b.b.b.b.",
"b.b.b.b.b.b.b.b.b.b.b.b.b.b.b.b.b.b.b.5.6.6.6.6.6.z.b.b.b.b.b.b.b.b.b.b.b.b.b.b.b.b.b.b.b."
};
