/* XPM */
static char *f38ae11d91c244d2f53b5d9a82fa3019WRWbKeC1igEBulU7[] = {
/* columns rows colors chars-per-pixel */
"45 45 207 2 ",
"   c #000000",
".  c #090702",
"X  c #170202",
"o  c #141802",
"O  c #271509",
"+  c #192001",
"@  c #382204",
"#  c #2D3406",
"$  c #292320",
"%  c #4D0000",
"&  c #4A0E00",
"*  c #500000",
"=  c #510E00",
"-  c #5E0912",
";  c #4F1111",
":  c #67071F",
">  c #6A1F1C",
",  c #442A07",
"<  c #523007",
"1  c #58360B",
"2  c #682F0D",
"3  c #570E2C",
"4  c #650923",
"5  c #6F332E",
"6  c #62440D",
"7  c #744A10",
"8  c #7E5015",
"9  c #5C6F0E",
"0  c #777517",
"q  c #544F21",
"w  c #724F3C",
"e  c #3E377F",
"r  c #7E1843",
"t  c #473A7A",
"y  c #5D4C46",
"u  c #5F5F5F",
"i  c #78514D",
"p  c #6E5C56",
"a  c #624666",
"s  c #696C6D",
"d  c #881931",
"f  c #823733",
"g  c #844F00",
"h  c #865202",
"j  c #89570F",
"k  c #865614",
"l  c #885716",
"z  c #875812",
"x  c #895C17",
"c  c #895719",
"v  c #896719",
"b  c #917215",
"n  c #895622",
"m  c #975A27",
"M  c #915A35",
"N  c #9A6F2C",
"B  c #9A712F",
"V  c #8A653B",
"C  c #93673B",
"Z  c #A57339",
"A  c #951F5E",
"S  c #AF135B",
"D  c #99214D",
"F  c #9F2257",
"G  c #A42442",
"H  c #AB255D",
"J  c #A92B58",
"K  c #B1265E",
"L  c #B93358",
"P  c #8D3474",
"I  c #AF2760",
"U  c #AD2C6C",
"Y  c #B02760",
"T  c #B32861",
"R  c #BD2B62",
"E  c #B83261",
"W  c #A7357F",
"Q  c #C32D54",
"!  c #C92F65",
"~  c #CD3066",
"^  c #DB3563",
"/  c #E8396A",
"(  c #F63D6F",
")  c #ED3E73",
"_  c #FA3F70",
"`  c #9B4D4C",
"'  c #AE4C46",
"]  c #A45A42",
"[  c #B85045",
"{  c #BB534D",
"}  c #946E4E",
"|  c #9B7455",
" . c #A2456F",
".. c #867F61",
"X. c #AE6A67",
"o. c #CB455A",
"O. c #DA6956",
"+. c #FA4271",
"@. c #EB6A61",
"#. c #F06E63",
"$. c #F96D65",
"%. c #F97068",
"&. c #EA7C73",
"*. c #758C16",
"=. c #63847A",
"-. c #7E8F76",
";. c #87991F",
":. c #86A119",
">. c #92AF1C",
",. c #9DB51F",
"<. c #9FBF1F",
"1. c #A88B33",
"2. c #8CA62F",
"3. c #8EA82F",
"4. c #9DAB27",
"5. c #9EB626",
"6. c #9FBF20",
"7. c #A7B329",
"8. c #AAB82A",
"9. c #B6BD2E",
"0. c #B0B432",
"q. c #CC923B",
"w. c #D59D39",
"e. c #9FC020",
"r. c #A1C120",
"t. c #A8C725",
"y. c #ABC926",
"u. c #AEC52B",
"i. c #B2C22D",
"p. c #B1CE2A",
"a. c #BCC82F",
"s. c #B6D22C",
"d. c #BAD52E",
"f. c #BACC30",
"g. c #BED532",
"h. c #C2D533",
"j. c #C3DB33",
"k. c #C9DF36",
"l. c #C7E034",
"z. c #CCE436",
"x. c #CFE738",
"c. c #D0E838",
"v. c #A48542",
"b. c #918674",
"n. c #A0826B",
"m. c #A68A7F",
"M. c #D59640",
"N. c #CDA24A",
"B. c #F9956F",
"V. c #E78378",
"C. c #F9837A",
"Z. c #B1C255",
"A. c #ECCB68",
"S. c #F3D26C",
"D. c #F9D870",
"F. c #001584",
"G. c #0D2F88",
"H. c #1A2387",
"J. c #1C2F88",
"K. c #323383",
"L. c #35488B",
"P. c #2C558E",
"I. c #336691",
"U. c #366D93",
"Y. c #3D7D97",
"T. c #3F7F98",
"R. c #535996",
"E. c #5B6A80",
"W. c #4D788F",
"Q. c #9D6F8C",
"!. c #3E8199",
"~. c #649085",
"^. c #5497A5",
"/. c #5FA9AD",
"(. c #6BB4B4",
"). c #7CCEBE",
"_. c #7BD0C4",
"`. c #7FD9C8",
"'. c #939291",
"]. c #AE9687",
"[. c #AF9788",
"{. c #B59A91",
"}. c #81A59C",
"|. c #BBA99D",
" X c #95ADAB",
".X c #B2B2B2",
"XX c #FA9B97",
"oX c #F5A89C",
"OX c #C7B9B0",
"+X c #F1B1A6",
"@X c #F9BFB0",
"#X c #CDC0B9",
"$X c #F0C8B9",
"%X c #A4B9C4",
"&X c #80D8C8",
"*X c #B1DED4",
"=X c #AEE3D8",
"-X c #B9E6DE",
";X c #DFDFDF",
":X c #F9D1C1",
">X c #FAD8CB",
",X c #F8EBCF",
"<X c #C1E9E0",
"1X c #EDF1E1",
"2X c #FAF6F5",
"3X c #F7F9F7",
"4X c #FFFFFF",
/* pixels */
"c.c.c.c.c.c.c.c.c.c.c.c.c.c.c.c.c.c.c.c.c.c.g.* * * * * * * 0 c.c.c.c.c.c.c.c.c.c.c.c.c.c.",
"c.c.c.c.c.c.c.c.c.c.c.c.c.c.c.c.c.c.c.h.i.i.0.G G G v.] G G Z i.x.c.c.c.c.c.c.c.c.c.c.c.c.",
"c.c.c.c.c.c.c.c.c.c.c.c.c.c.c.c.c.c.c.4.% % d _ _ +.D.B.( _ ^ * z.c.c.c.c.c.c.c.c.c.c.c.c.",
"c.c.c.c.c.c.c.c.c.c.c.c.c.c.c.c.c.c.< L ( ( / T M.w.D.,X4XS J * z.c.c.c.c.c.c.c.c.c.c.c.c.",
"c.c.c.c.c.c.c.c.x.x.x.c.c.c.c.c.z.k.: Q ( ( / H q.w.S.,X3XS D % j.z.c.c.c.c.c.c.c.c.c.c.c.",
"c.c.c.c.c.c.c.c.t.r.p.c.c.c.c.c.0 * +.^ Y Y F                     # c.c.c.c.c.c.c.c.c.c.c.",
"c.c.c.c.c.c.c.c.t.r.p.c.c.c.k.0 o.^ ! D 3 3 3                     o 0 f.c.c.c.c.c.c.c.c.c.",
"c.c.c.c.c.c.c.c.t.r.p.c.c.c.j.% / _ K r                               u.c.c.c.c.c.c.c.c.c.",
"c.c.c.c.x.y.y.y.r.r.r.y.y.* 4 Y I H                                   u.c.c.c.c.c.c.c.c.c.",
"c.c.c.c.x.r.r.r.r.r.r.r.r.= 4 Y Y H       ' X..X.X.X' {..X.X'.    o ;.g.c.c.c.c.c.c.c.c.c.",
"c.c.c.c.x.p.p.p.r.r.r.r.r.& : S Y Y       %.XX4X4X4X$.>X4X4X;X    + d.j.j.z.c.c.c.c.c.c.c.",
"c.c.c.c.c.c.c.c.t.r.r.r.r.%.C.:Xp .   { %.%.XX4Xu $ :Xm.  4X1X<.r.r.6.<.<.p.c.c.c.c.c.c.c.",
"c.c.c.c.c.c.c.c.t.r.r.8.0.@.V.:Xp     { %.C.oX4Xu $ :Xm.  4X1XZ.5.,.r.r.r.p.c.c.c.c.c.c.c.",
"c.c.c.c.c.c.c.c.y.r.r.N.%.c | :Xp     { $.$X>X4Xu $ :Xm.  4X2X:XC x r.r.r.p.x.x.x.c.c.c.c.",
"c.c.c.c.c.c.c.c.x.x.j.N.%.c M C.5     ; > :X:X>X&.@.C.oX$X>X>X:XC x r.r.r.r.r.r.t.c.c.c.c.",
"c.c.c.c.c.c.c.c.c.c.j.N.%.c m %.5 X   .   :X:X$XC.%.%.+X:X:X:X:XC x r.r.r.r.r.r.t.c.c.c.c.",
"c.c.c.c.c.c.c.c.c.c.j.<.<.%.%.%.%.%.  {.:X:X+X  8 c %.$.$.$.$.$.m v r.r.r.r.<.<.r.c.c.c.c.",
"c.c.c.c.c.c.c.c.c.c.x.l.z.' ' ' @.%.{ V.oX].b.  1 1 ' ' ' ' ' ' 2 6 *.>.r.p.z.l.z.c.c.c.c.",
"c.c.c.c.c.c.c.c.c.c.c.c.c.      @.%.%.%.%.                            :.r.p.c.c.c.c.c.c.c.",
"c.c.c.c.c.c.c.c.c.c.c.c.c.c.j.      %.%.$.:X:X:Xy                 # d.y.y.d.c.c.c.c.c.c.c.",
"c.c.c.c.c.c.c.c.c.c.c.c.c.f.i.X .   @.#.$.@X@X@X` f f f f , , , , 1 h.z.c.c.c.c.c.c.c.c.c.",
"c.c.c.c.c.c.c.c.c.c.c.c.c.= * % X   l O.%.%.%.%.%.%.%.%.%.k l k l l k a.c.c.c.c.c.c.c.c.c.",
"c.c.c.c.c.c.c.c.c.c.c.8.6 H H H H H J L E E J > > > m m m l [.2X} C 2X|.v c.c.c.c.c.c.c.c.",
"c.c.c.c.c.c.c.c.c.c.c.7.% I Y T T T T T T I F ; - - n n n C {.4X| } 4X|.l c.c.c.c.c.c.c.c.",
"c.c.c.c.c.c.c.c.c.c.c.7.% I R _ _ _ _ _ _ G.J.J.) _ _ W F.4X;Xh 2X4X4X|.l c.c.c.c.c.c.c.c.",
"c.c.c.c.c.c.c.c.c.c.c.7.% I K [ [ [ [ o.~ P P U.Q.Q.~ U A %X Xk 2X4X4X|.l c.c.c.c.c.c.c.c.",
"c.c.c.c.c.c.c.c.c.c.c.7.% Y J g g g c ` Y Y  .!.Y.W.S K Y !.E.h 3X4X4X|.l c.c.c.c.c.c.c.c.",
"c.c.c.c.c.c.c.c.c.c.c.7.% k n.4X4X4Xh l z % % % ).&X`.~.% * s &XV g g a.c.c.c.c.c.c.c.c.c.",
"c.c.c.c.c.c.c.c.z.l.z.8.2 |.OX4X4X4X|.|.|.2 w =.*X-X-X X=.=.}.-Xs i 4.h.c.c.c.c.c.c.c.c.c.",
"c.c.c.c.c.c.c.c.t.<.p.9.h 4X4X4X4X4X4X4X4Xh ..`.3X4X4X<X&X&X=X4XR.L.c.c.c.c.c.c.c.c.c.c.c.",
"c.c.c.c.c.c.c.c.t.e.p.9.h 4X4X4X4X4X4X4X4Xh ..&X3X4X4X<X&X&X).L.M n v a.c.c.c.c.c.c.c.c.c.",
"c.c.c.c.c.x.x.c.t.r.p.9.b 2X3X4X4X4X4X3X3XV b.&X3X3X3X-X&X_.(.K.C N l 9.k.x.c.c.c.c.c.c.c.",
"c.c.c.c.x.r.r.r.r.r.r.r.r.z n.4X4X4X4X#Xh &X&X&X`.&X`.&X&XH.t k S.S.k <   s.c.c.c.c.c.c.c.",
"c.c.c.c.x.r.6.6.r.r.r.r.r., y [.[.[.[.'.W.^./.&X&X&X&X/.W.i w l 1.1., O   p.c.c.c.c.c.c.c.",
"c.c.c.c.x.d.d.d.r.r.r.r.r.. @ l z z z s !.!.^.&X&X&X&X^.J.j l l c k       t.d.d.d.c.c.c.c.",
"c.c.c.c.c.c.c.c.t.r.r.*.  l l l e J.J.I.!.!.T.Y.Y.Y.Y.P.J.z l l c k       r.6.6.r.c.c.c.c.",
"c.c.c.c.c.c.c.c.t.r.r.9   l l l t J.J.P.I.I.I.I.I.I.I.P.J.j l l 6 1   9 *.r.r.r.t.c.c.c.c.",
"c.c.c.c.c.c.c.c.p.y.t.    l l k e J.J.J.J.J.J.J.J.J.J.J.J.j l l O     :.e.e.r.r.r.z.z.x.c.",
"c.c.c.c.c.c.c.c.c.c.j.    l B D.Z c c a J.J.s c.c.c.c.c.c.l 7         :.e.e.e.r.r.<.<.j.c.",
"c.c.c.c.c.c.c.c.c.c.j.    l B A.B 8 8 p E.E.-.c.c.c.c.c.c.b v     o q :.e.e.e.r.r.r.<.j.c.",
"c.c.c.c.c.c.c.c.c.c.j.    l l l @     4.c.c.c.c.c.c.c.c.c.c.f.    # p.r.r.r.r.r.r.r.r.j.c.",
"c.c.c.c.c.c.c.c.c.c.x.g.h.@ @ @ i.j.j.z.c.c.c.c.c.c.c.c.c.c.x.j.j.j.x.x.x.g.<.r.r.x.x.x.c.",
"c.c.c.c.c.c.c.c.c.c.c.c.c.o . . h.c.c.c.c.c.c.c.c.c.c.c.c.c.c.c.c.c.c.c.c.j.<.e.r.c.c.c.c.",
"c.c.c.c.c.c.c.c.c.c.c.c.c.c.c.c.c.c.c.c.c.c.c.c.c.c.c.c.c.c.c.c.c.c.c.c.c.z.s.s.d.c.c.c.c.",
"c.c.c.c.c.c.c.c.c.c.c.c.c.c.c.c.c.c.c.c.c.c.k.3.3.3.3.3.2.c.c.c.c.c.c.c.c.c.c.c.c.c.c.c.c."
};
