/* XPM */
static char *cat_right1714676597[] = {
/* columns rows colors chars-per-pixel */
"40 40 35 1 ",
"  c black",
". c #222034",
"X c #45283C",
"o c #663931",
"O c #8F563B",
"+ c #DF7126",
"@ c #D9A066",
"# c #EEC39A",
"$ c #FBF236",
"% c #99E550",
"& c #6ABE30",
"* c #37946E",
"= c #4B692F",
"- c #524B24",
"; c #323C39",
": c #3F3F74",
"> c #306082",
", c #5B6EE1",
"< c #639BFF",
"1 c #5FCDE4",
"2 c #CBDBFC",
"3 c white",
"4 c #9BADB7",
"5 c #847E87",
"6 c #696A6A",
"7 c #595652",
"8 c #76428A",
"9 c #AC3232",
"0 c #D95763",
"q c #D77BBA",
"w c #8F974A",
"e c #8A6F30",
"r c #7FA45D",
"t c #4F6937",
"y c #566D41",
/* pixels */
"=t===tyt==tt=tyt=tt==tt===tt==tttttt====",
"===t==tt==tt==tt=tt=tyt==t====ttttyt==t=",
"==tyt=====yy======--=yt=t-========tt=tyt",
"==tyt=====tt===ttew@wtt=ewe=yt=======tyt",
"===t======tt===tew@#47=ew@e-yt==tt===tyt",
"t=====tt==tt===-w@#247-w@@e-yt==tyt==ttt",
"t====tyt==tt==ew@#22q7w@@q5-yt==ttt=====",
"t=tyttyt==yy=-e@#22qq@w@qq5-============",
"t=tyttyt==tteew#22qq##55qq5e==tt=====ttt",
"t=tt==tt===yw@#222q##2222#@wytttt=tt=tyt",
"==========e@#22222222222222#@e===tyt=tyt",
"====tt===e5#2222222222422222#5-==tyt=tyt",
"ttt=yytt-w#2222222224664222225y-==tt==t=",
"tyt=tttt-@#22222222246422222224ttt=====t",
"tyt====t-@#24422222240#22222224-tt=====t",
"tyt==t==-@#2454222222@+#22222#+-tytttt=t",
"=t==tyt=-@#2222222222$$#22222#+-tyttyt=t",
"t===yyt=-@#244222222222233442#w-tt=tyt=t",
"t===ttt=-e@244422222222332442#e-===tyt=t",
"t========-w#2222222222333444re-====tt==t",
"t=======ttew54########333245y===t======t",
"====tytttt==-ew@@@@@@@##445-=t==tttttt=t",
"ttt=tyttyy====-e6555555567======tyt=====",
"tyt=====t=-===e@#222222246======tyt==tt=",
"ttt======w@t==642242233226======tt===tyt",
"======tt-@@y==622244233326==tt==t====tyt",
"=====tyt-@@yt=e#2224433326=tyt=======tyt",
"=t===tyt-@@y==-w#222443326==tt=======ttt",
"tyt===tt-w@we--ew#22462246======ttt=====",
"tyt===tt-w@@w-e@ww##@544O=ttt===tt=ttt=t",
"ttt===tt=ee@@we@@@eew@@@@e=yt===t==tyt=t",
"===t===t==eewee@@#@@@we@@we========ttt=t",
"t=tyt=====t---e@####@--w@@e-==yy=======t",
"t=tyt=tt====-e@@###wtt-w@@e-==yytttt===t",
"t=tt=tyt=====ee@@@we===eeeeyt=yyttyy==t=",
"=====tyt======-wwwtt==tt-=yyt=ttttyt=tyt",
"tyt==tyt===ttt=---====tyt=tyt====tyt=tyt",
"tyt===tt===tyt=ttt====tyt=tt==tt==tt=tyt",
"tyt=tt=====tyyttyt=tt=ttt=tt==yyt=tt=ttt",
"tyt=tyt====tyyttyt=yy=====yt==yyttyt===="
};
