/* XPM */
static char *b622aa082955490f99fc4880dede0b785o3paG1zMtnGx0O5[] = {
/* columns rows colors chars-per-pixel */
"45 45 223 2 ",
"   c #010000",
".  c #0C0100",
"X  c #140000",
"o  c #1C0000",
"O  c #230001",
"+  c #2C0000",
"@  c #390202",
"#  c #230B10",
"$  c #372C1F",
"%  c #420103",
"&  c #440109",
"*  c #550519",
"=  c #4F1013",
"-  c #61001E",
";  c #552D0A",
":  c #5B340B",
">  c #65310A",
",  c #653819",
"<  c #5A0821",
"1  c #630A26",
"2  c #751033",
"3  c #7C1237",
"4  c #7C1239",
"5  c #462D2C",
"6  c #6F2D27",
"7  c #54510D",
"8  c #774914",
"9  c #686A0D",
"0  c #646914",
"q  c #726B14",
"w  c #756E18",
"e  c #6B7616",
"r  c #767819",
"t  c #744C2E",
"y  c #78773B",
"u  c #160D4C",
"i  c #351D45",
"p  c #382A4A",
"a  c #282E74",
"s  c #521F4D",
"d  c #7F1B45",
"f  c #4D2753",
"g  c #693E58",
"h  c #4F3C6A",
"j  c #58377D",
"k  c #783164",
"l  c #3B487E",
"z  c #3A5D7B",
"x  c #764C47",
"c  c #6E554C",
"v  c #684A52",
"b  c #5B6E4C",
"n  c #494578",
"m  c #4F547A",
"M  c #5C7475",
"N  c #717873",
"B  c #8F0239",
"V  c #84153D",
"C  c #AA0F3D",
"Z  c #843034",
"A  c #983639",
"S  c #9E4506",
"D  c #834C17",
"F  c #88741E",
"G  c #924E33",
"H  c #A85333",
"J  c #8B7527",
"K  c #947D28",
"L  c #897231",
"P  c #931A47",
"I  c #9B1C4D",
"U  c #A41F52",
"Y  c #AB1F55",
"T  c #A82848",
"R  c #AC2E4D",
"E  c #A72055",
"W  c #AC2154",
"Q  c #B52456",
"!  c #B92456",
"~  c #933A62",
"^  c #C62659",
"/  c #D22A5C",
"(  c #DA2C5A",
")  c #C83F5A",
"_  c #E12E5E",
"`  c #E92C5C",
"'  c #EB315E",
"]  c #E32F60",
"[  c #E73061",
"{  c #EC3162",
"}  c #ED3B67",
"|  c #F53463",
" . c #FE3665",
".. c #F93967",
"X. c #8E4D4D",
"o. c #B55846",
"O. c #8A6755",
"+. c #AE6B54",
"@. c #925861",
"#. c #AA4770",
"$. c #966B63",
"%. c #977568",
"&. c #AE796A",
"*. c #C75746",
"=. c #D25953",
"-. c #CD4E6D",
";. c #D75278",
":. c #F35F60",
">. c #CE7F6D",
",. c #E26B62",
"<. c #7B841C",
"1. c #7B935E",
"2. c #789162",
"3. c #748476",
"4. c #83871D",
"5. c #849C18",
"6. c #8FAA1B",
"7. c #97B41D",
"8. c #9FBF1F",
"9. c #8B8726",
"0. c #978223",
"q. c #969A26",
"w. c #959032",
"e. c #9BAA26",
"r. c #9BB726",
"t. c #9FBF22",
"y. c #A2AD28",
"u. c #A5B927",
"i. c #A2B229",
"p. c #ABBC2C",
"a. c #9FC020",
"s. c #A1C120",
"d. c #A8C725",
"f. c #ABC926",
"g. c #ABC42A",
"h. c #B4C62E",
"j. c #B2CE2A",
"k. c #B6D22C",
"l. c #BAD52E",
"z. c #BED432",
"x. c #C3DB33",
"c. c #C3D934",
"v. c #C7E034",
"b. c #CCE436",
"n. c #CFE738",
"m. c #D0E838",
"M. c #969444",
"N. c #8EAA49",
"B. c #A3B753",
"V. c #AF8970",
"C. c #99AB68",
"Z. c #8EA871",
"A. c #A3B765",
"S. c #C6947C",
"D. c #B7CB48",
"F. c #AEC25A",
"G. c #C3DA47",
"H. c #1A2C85",
"J. c #2A3983",
"K. c #3C3685",
"L. c #0F4C8B",
"P. c #294889",
"I. c #394882",
"U. c #2A598E",
"Y. c #355D8B",
"T. c #2E5D91",
"R. c #1F6192",
"E. c #33638F",
"W. c #2E6491",
"Q. c #336693",
"!. c #366893",
"~. c #3B6D97",
"^. c #377496",
"/. c #3E7399",
"(. c #424E81",
"). c #4A5B82",
"_. c #614784",
"`. c #516F8B",
"'. c #40759A",
"]. c #427B9C",
"[. c #707A92",
"{. c #9A7B84",
"}. c #9D7F95",
"|. c #B17881",
" X c #32819C",
".X c #3F8CA1",
"XX c #45859F",
"oX c #6A9695",
"OX c #4688A1",
"+X c #4D8CA4",
"@X c #558FA0",
"#X c #4D96A6",
"$X c #5093A7",
"%X c #539BAA",
"&X c #58A1AE",
"*X c #5BA6B0",
"=X c #5DACB3",
"-X c #5AB1B5",
";X c #6BAFB3",
":X c #66B9BA",
">X c #72B0B3",
",X c #6BC1BE",
"<X c #6CC5C1",
"1X c #6ECAC4",
"2X c #71CDC6",
"3X c #75D4CA",
"4X c #78D9CD",
"5X c #B4968F",
"6X c #AB9A92",
"7X c #C99887",
"8X c #D6A694",
"9X c #D5A696",
"0X c #EEA495",
"qX c #CDBDAF",
"wX c #CAB7B6",
"eX c #ECBBAA",
"rX c #D2C2BE",
"tX c #C5BDC3",
"yX c #D2C5CB",
"uX c #E3D6DB",
"iX c #E5E6D4",
"pX c #F3EAF1",
"aX c #FCF5FC",
/* pixels */
"m.m.m.m.m.m.m.m.m.m.m.m.m.m.m.m.n.m.b.y.w w w w w y.b.m.n.m.m.m.m.m.m.m.m.m.m.m.m.m.m.m.m.",
"m.m.m.m.m.m.m.m.m.m.m.m.m.m.m.n.h.i.e.L 4 4 4 4 4 L e.i.h.n.m.m.m.m.m.m.m.m.m.m.m.m.m.m.m.",
"m.m.m.m.m.m.m.m.m.m.m.m.m.m.n.z.9.6 Z T Q Q Q Q Q T Z 6 9.z.n.m.m.m.m.m.m.m.m.m.m.m.m.m.m.",
"m.m.m.m.m.m.m.m.m.m.m.m.m.m.h.9.G W ( ' { { { { { ' ( W G 9.h.m.m.m.m.m.m.m.m.m.m.m.m.m.m.",
"m.m.m.m.m.m.m.m.n.n.n.m.b.h.w.Z ! ]  . . . . . . . . .] T , p.m.m.m.m.m.m.m.m.m.m.m.m.m.m.",
"m.m.m.m.m.m.m.m.d.s.j.m.x.4.6 W _  . . . . . . . . . . ./ t i.b.n.m.m.m.m.m.m.m.m.m.m.m.m.",
"m.m.m.m.m.m.m.m.d.s.j.m.c.r 2 W [  . . . . . . . . . . ._ T L e.x.m.m.m.m.m.m.m.m.m.m.m.m.",
"m.m.m.m.m.m.m.m.d.s.j.m.x.4.2 W [  . . . . . . . . . . .[ W 2 r x.m.m.m.m.m.m.m.m.m.m.m.m.",
"m.m.m.m.n.f.f.f.s.s.s.f.u.q 2 W ]  . . . . . . . . . . .[ W 2 <.u.d.x.m.m.m.m.m.m.m.m.m.m.",
"m.m.m.m.n.s.s.s.s.s.s.s.7.9 2 E ^ _  . . . . . . . . . .[ W 2 r 7.8.x.m.m.m.m.m.m.m.m.m.m.",
"m.m.m.m.n.j.j.j.s.s.s.7.5.7 1 P U ^ [ { { { |  . . . .| ( W 2 r 7.8.l.x.x.b.m.m.m.m.m.m.m.",
"m.m.m.m.m.m.m.m.d.s.t.q.t $ @ 1 P W Q Q Q ! (  . . .| / Q U 2 9 7.s.t.8.8.j.m.m.m.m.m.m.m.",
"m.m.m.m.m.m.m.m.d.s.q.V.5Xc   * P E E E E E ! / / / / Q I 4 < 7 e 6.s.s.s.j.m.m.m.m.m.m.m.",
"m.m.m.m.m.m.m.m.f.s.J 7XeX%.+ = V I I I I U E E E E E I V * O 5 O.M.r.s.s.j.n.n.n.m.m.m.m.",
"m.m.m.m.m.m.m.m.n.n.K 7XeX&.: @ * 1 1 < 2 I E U U E I 3 * % X O.9XS.9.s.s.s.s.s.d.m.m.m.m.",
"m.m.m.m.m.m.m.m.m.m.K >.0X+.>   . + @ @ * 3 V V V V 4 * + +   %.eX7XJ s.s.s.s.s.d.m.m.m.m.",
"m.m.m.m.m.m.m.m.m.m.K *.,.H t c 5 o @ @ % & & & & & & O     X $.eXS.F a.a.a.8.8.s.m.m.m.m.",
"m.m.m.m.m.m.m.m.m.m.K G H G V.9X$.  o O o o o o o o o .   # : o.,.>.K a.s.f.b.v.b.m.m.m.m.",
"m.m.m.m.m.m.m.m.m.m.0.H *.*.>.9X7X%.$                   c V.O.S *.7XqXu.s.j.m.m.m.m.m.m.m.",
"m.m.m.m.m.m.m.m.m.m.0.o.:.:.=.+.9X9Xx @           = = = %.9X7X%.&.rXiXf.f.l.m.m.m.m.m.m.m.",
"m.m.m.m.m.m.m.m.m.m.F A ) ) R R $.&.=.A .       . A =.G G V.wXuXuXwX9Xm.m.m.m.m.m.m.m.m.m.",
"m.m.m.m.m.m.m.m.m.m.w 4 Y ^ / ^ B Z -.~ u # + # u ~ -.X.> O.yXaXaXwX0.m.m.m.m.m.m.m.m.m.m.",
"m.m.m.m.m.m.m.m.m.m.w 2 W _ | { C s j K.a i 5 i a K.j s & x yXaXaXwXw.m.m.m.m.m.m.m.m.m.m.",
"m.m.m.m.m.m.m.m.m.m.w * V ! [ | ^ k Y.R.Y.z z z Y.W.Y.k B ~ {.tXpXwXw.m.m.m.m.m.m.m.m.m.m.",
"m.m.m.m.m.m.m.m.m.m.q.0 1 P / | _ #.`..X#X%X%X%X%XOX`.#.^ ^ C |.yX6XK m.m.m.m.m.m.m.m.m.m.",
"m.m.m.m.m.m.m.m.m.m.x.e., P /  . .;.[.-X1X1X1X1X2X-X[.;.| | | -.@.v r m.m.m.m.m.m.m.m.m.m.",
"m.m.m.m.m.m.m.m.m.m.m.i., P / ..;.}.>X1X1X%X+X&X1X1X>X}.;... .` B - w m.m.m.m.m.m.m.m.m.m.",
"m.m.m.m.m.m.m.m.m.m.n.g.L X.) ;.}.=X2X3X<X+X~.+X,X3X2X=X6X;.} ( Q 4 w m.m.m.m.m.m.m.m.m.m.",
"m.m.m.m.m.m.m.m.b.v.b.b.D.N _.[.>X1X3X3X3X1X<X1X2X3X2X1X>X{.#.Q U 4 r m.m.m.m.m.m.m.m.m.m.",
"m.m.m.m.m.m.m.m.d.8.j.m.G.3.L. X:X4X3X4X3X3X4X2X=X%X%X%XOXU.j k d K p.m.m.m.m.m.m.m.m.m.m.",
"m.m.m.m.m.m.m.m.d.s.j.m.G.3.P.^.=X<X<X,X1X3X3X1X'.P.~.~.~.!.P.h y p.n.m.m.m.m.m.m.m.m.m.m.",
"m.m.m.m.m.n.n.m.d.s.j.m.G.3.H.P.!././.~.+X1X4X<X/.].:X:X:X:X].M D.x.n.n.n.n.m.m.m.m.m.m.m.",
"m.m.m.m.n.s.s.s.s.s.s.N.2.m !.$X%X$X+XE./.1X4X<X'.$X3X4X1X*X/.`.C.D.j.s.s.k.m.m.m.m.m.m.m.",
"m.m.m.m.n.s.t.t.s.s.t.1.I.H.XX,X2X3X2X+X~.:X2X:X/.+X<X1X=X'.^.W.).A.j.s.s.j.m.m.m.m.m.m.m.",
"m.m.m.m.n.l.l.l.s.s.t.1.J.H.Q.%X<X4X3X$XU.OX#X+X^.~.].].$X;X#XQ.P.C.g.s.a.d.l.l.l.m.m.m.m.",
"m.m.m.m.m.m.m.m.d.s.t.1.J.P.U.Q.%X=X=X%XOXQ.U.T.W./.+X+X%X-X#XW.P.1.s.s.s.s.t.t.s.m.m.m.m.",
"m.m.m.m.m.m.m.m.d.a.t.1.P.W.W.P.P.P.T.&X;X`.).).).@X,X1X:XXX^.E.I.1.u.s.s.s.a.s.d.m.m.m.m.",
"m.m.m.m.m.m.m.m.j.f.d.1.P.Q.^.W.W.T.W./.oXA.F.F.F.Z.@X%X#X^.U.n v w.s.s.s.s.s.s.s.b.b.n.m.",
"m.m.m.m.m.m.m.m.m.m.c.N.M `.W.W.W.W.!.[.C.G.m.m.m.A.I.U.).`.m h t p.j.s.s.s.s.s.s.8.8.c.m.",
"m.m.m.m.m.m.m.m.m.m.x.r.N.M J.J.J.J.(.C.G.n.m.m.m.A.l H.n x t t 7 u.j.s.s.u.s.s.s.s.8.x.m.",
"m.m.m.m.m.m.m.m.m.m.x.s.r.b f g v v v y i.x.m.m.n.B.p u i ; ; q e.c.j.s.s.s.s.s.s.s.s.x.m.",
"m.m.m.m.m.m.m.m.n.n.n.c.p.w , D D D D : e z.m.m.m.h.<.e r r e e.x.m.n.n.n.z.8.s.s.n.n.n.m.",
"m.m.m.m.m.m.m.m.m.m.n.p.0 8 8 D D D D ; r c.m.m.m.b.c.c.c.c.c.x.n.m.m.m.m.c.8.a.s.m.m.m.m.",
"m.m.m.m.m.m.m.m.m.m.n.e.# ; : : : : : 4.p.b.m.m.m.m.m.m.m.m.m.m.m.m.m.m.m.b.k.k.l.m.m.m.m.",
"m.m.m.m.m.m.m.m.m.m.n.p.e 0 0 0 0 0 e g.n.m.m.m.m.m.m.m.m.m.m.m.m.m.m.m.m.m.m.m.m.m.m.m.m."
};
