/* XPM */
static char *cat_back1714676597[] = {
/* columns rows colors chars-per-pixel */
"40 40 35 1 ",
"  c black",
". c #222034",
"X c #45283C",
"o c #663931",
"O c #8F563B",
"+ c #DF7126",
"@ c #D9A066",
"# c #EEC39A",
"$ c #FBF236",
"% c #99E550",
"& c #6ABE30",
"* c #37946E",
"= c #4B692F",
"- c #524B24",
"; c #323C39",
": c #3F3F74",
"> c #306082",
", c #5B6EE1",
"< c #639BFF",
"1 c #5FCDE4",
"2 c #CBDBFC",
"3 c white",
"4 c #9BADB7",
"5 c #847E87",
"6 c #696A6A",
"7 c #595652",
"8 c #76428A",
"9 c #AC3232",
"0 c #D95763",
"q c #D77BBA",
"w c #8F974A",
"e c #8A6F30",
"r c #7FA45D",
"t c #4F6937",
"y c #566D41",
/* pixels */
"=t===tyt==tt=tyt=tt==tt===tt==tttttt====",
"===t==tt==tt==tt=tt=tyt==t====ttttyt==t=",
"==tyt=====yy==-=====tyt=tt-=======tt=tyt",
"==tyt=====tt=t@wtt==tyt==w@ytt=======tyt",
"===t======ttew#@e====t==e@#wet==tt===tyt",
"t=====tt==t-e@22@O=tt==O@22@e-==tyt==ttt",
"t====tyt==t-w#2246=yy==6422#w-==ttt=====",
"t=tyttyt==te@22225ett=e52222@e==========",
"t=tyttyt==-@#2222#weeew#2222#@-t=====ttt",
"t=tt==tt==y@#2222#######2222#@ytt=tt=tyt",
"=========ew##222222222222222##we=tyt=tyt",
"====tt==-e@#22222222222222222#@e-tyt=tyt",
"ttt=yytt=w#2222222222222222222#w-=tt==t=",
"tyt=tttttw#2222222222222222222#w=t=====t",
"tyt=====-w#2222222222222222222#w-======t",
"tyt==t=--w#2222222222222222222#w--tttt=t",
"=t==tyt=-w##22222222222222222##w-yttyt=t",
"t===yyt=-e@##222222222222222##@e-==tyt=t",
"t===ttt--e@@##2222222222222##@@e--=tyt=t",
"t=========e@@###############@@e====tt==t",
"t=======tt=eew@@@#######@@@wee==t======t",
"====tytttt==--eww@@@@@@@wwe--===tttttt=t",
"ttt=tyttyy==e666655555556666e===tyt=====",
"tyt=====tt=-w#2##2222222##2#w-==tyt==tt=",
"ttt========w#2##222222222##2#w==tt===tyt",
"======tt=ee@#2@42222222224@2#@eet====tyt",
"=====tyt=e@##@e42222222224e@##@e=====tyt",
"=t===tyt-e@@@e-42222222224-e@@@e-====ttt",
"tyt===tt-ewwe--42222222224--ewwettt=====",
"tyt===ttee--==-@#2222222#@-t=--=tt=ttt=t",
"ttt===t-@@yttt-@#542#55##@-yt===t==tyt=t",
"===t===-@@@w=--e542#wew##@-t=======ttt=t",
"t=tyt==-e@#@ww5542#@y-w##@-===yy=======t",
"t=tyt=tt-e@@##222#wy=-w##@-t==yytttt===t",
"t=tt=tyt=eewww555we-=-w@@w-yt=yyttyy==t=",
"=====tyt===--------===ewwetyt=ttttyt=tyt",
"tyt==tyt===ttt==--=====--=tyt====tyt=tyt",
"tyt===tt===tyt=ttt====tyt=tt==tt==tt=tyt",
"tyt=tt=====tyyttyt=tt=ttt=tt==yyt=tt=ttt",
"tyt=tyt====tyyttyt=yy=====yt==yyttyt===="
};
