/* XPM */
static char *f422cea5fe4e4ed49a31a7a6ffc71e4boyOR2xy3bPhcl8zn[] = {
/* columns rows colors chars-per-pixel */
"45 45 185 2 ",
"   c #000000",
".  c #0A0201",
"X  c #010219",
"o  c #2E020B",
"O  c #350000",
"+  c #351E02",
"@  c #12320F",
"#  c #262C04",
"$  c #04082A",
"%  c #262626",
"&  c #282828",
"*  c #3A3432",
"=  c #460000",
"-  c #4E0000",
";  c #500000",
":  c #61091C",
">  c #68131A",
",  c #4D3009",
"<  c #593608",
"1  c #513918",
"2  c #6A3B0E",
"3  c #591023",
"4  c #7F0539",
"5  c #483A35",
"6  c #79332F",
"7  c #694B14",
"8  c #5E6914",
"9  c #464D29",
"0  c #584337",
"q  c #677D22",
"w  c #4B4B4B",
"e  c #564741",
"r  c #535353",
"t  c #5A5A5A",
"y  c #676B59",
"u  c #646464",
"i  c gray47",
"p  c #8E1B35",
"a  c #8D1F3C",
"s  c #941C39",
"d  c #9F213F",
"f  c #873736",
"g  c #865505",
"h  c #89560C",
"j  c #885717",
"k  c #885816",
"l  c #8D661A",
"z  c #865625",
"x  c #9B4E3F",
"c  c #926437",
"v  c #9F7F3F",
"b  c #9F2545",
"n  c #A62459",
"m  c #AD265E",
"M  c #BE2C50",
"N  c #B02760",
"B  c #B92A62",
"V  c #A63764",
"C  c #DB335E",
"Z  c #D73467",
"A  c #E83A69",
"S  c #F43C6E",
"D  c #FB3D6F",
"F  c #F93F70",
"G  c #854440",
"H  c #B74846",
"J  c #B4585D",
"K  c #A37B56",
"L  c #866E64",
"P  c #8B756F",
"I  c #947B71",
"U  c #CB4C53",
"Y  c #D15D56",
"T  c #CB644D",
"R  c #CC7052",
"E  c #E3655E",
"W  c #EB6362",
"Q  c #FA6F67",
"!  c #F47566",
"~  c #FA7169",
"^  c #F4786F",
"/  c #798D19",
"(  c #738379",
")  c #8AA11B",
"_  c #94A81E",
"`  c #9FBF1F",
"'  c #839321",
"]  c #A89A33",
"[  c #8AA427",
"{  c #8CA72F",
"}  c #9FBF20",
"|  c #A1B429",
" . c #A9B12F",
".. c #D89C38",
"X. c #D9A236",
"o. c #9FC020",
"O. c #A1C120",
"+. c #A8C725",
"@. c #ABC926",
"#. c #B3C52E",
"$. c #B2CE2A",
"%. c #B5D12B",
"&. c #BAD52E",
"*. c #BBCA30",
"=. c #BDD031",
"-. c #BFDA30",
";. c #C4D733",
":. c #C3DC32",
">. c #C7E034",
",. c #CCE436",
"<. c #CFE738",
"1. c #D0E838",
"2. c #93AF49",
"3. c #87A355",
"4. c #84857E",
"5. c #9E8379",
"6. c #869873",
"7. c #9DB168",
"8. c #F78B70",
"9. c #A7C14E",
"0. c #BCD353",
"q. c #C8DE45",
"w. c #F9D86F",
"e. c #1B2B87",
"r. c #1E2E88",
"t. c #193A8A",
"y. c #243A89",
"u. c #783384",
"i. c #28468B",
"p. c #294D8C",
"a. c #3A438D",
"s. c #326791",
"d. c #366B92",
"f. c #397A96",
"g. c #3D7D97",
"h. c #4E5E82",
"j. c #464D91",
"k. c #4F5594",
"l. c #4E6085",
"z. c #7B668A",
"x. c #6D748D",
"c. c #95728E",
"v. c #827490",
"b. c #368199",
"n. c #3F8098",
"m. c #418399",
"M. c #48899D",
"N. c #4D91A0",
"B. c #559CA6",
"V. c #58A0A8",
"C. c #6DB3AD",
"Z. c #79C5B6",
"A. c #73C5BD",
"S. c #78CCC1",
"D. c #7CD3C5",
"F. c #7FD8C8",
"G. c #888888",
"H. c #959595",
"J. c #9A9A9A",
"K. c #AA8E84",
"L. c #B9978B",
"P. c #9EA38D",
"I. c #A5A5A5",
"U. c #AAAAAA",
"Y. c #BEA7A0",
"T. c #B8B0B0",
"R. c #FB9388",
"E. c #C5A396",
"W. c #D8B4A6",
"Q. c #EBBBB0",
"!. c #E6C6A4",
"~. c #EBC5B5",
"^. c #F9C4BB",
"/. c #F3CBBB",
"(. c #81D8C8",
"). c gainsboro",
"_. c #F9D1C1",
"`. c #FDDAD8",
"'. c #D9F1EB",
"]. c #E2E2E2",
"[. c gray91",
"{. c #FCF3EF",
"}. c #E8F6F3",
"|. c #F6F5F4",
" X c #FEFEFE",
/* pixels */
"1.1.1.1.1.1.1.1.1.1.1.1.1.1.1.1.1.1.1.; ; ; ; ; ; *.1.1.1.1.1.1.1.1.1.1.1.1.1.1.1.1.1.1.1.",
"1.1.1.1.1.1.1.1.1.1.1.1.1.1.1.<.#.#.#.d x v j j d  .#.#.#.#.<.<.#.#.#.1.1.1.1.1.1.1.1.1.1.",
"1.1.1.1.1.1.1.1.1.1.1.1.1.1.1.,.- - = F 8.w.X...F s -       <.:.      1.1.1.1.1.1.1.1.1.1.",
"1.1.1.1.1.1.1.1.1.1.1.1.1.1.7 7 m A S ..!. X X{...W S   I. X9 y |.i   1.1.1.1.1.1.1.1.1.1.",
"1.1.1.1.1.1.1.1.<.<.<.1.<.<.2 : B A S ..!. X X|...W S   U. Xw u  X4.# 1.1.1.1.1.1.1.1.1.1.",
"1.1.1.1.1.1.1.1.+.O.$.1.#.- m B F a                     U. X X|.  =.1.1.1.1.1.1.1.1.1.1.1.",
"1.1.1.1.1.1.1.1.+.O.$.1.#.- m m b 3                     U. XI.J.  / ' 1.1.1.1.1.1.1.1.1.1.",
"1.1.1.1.1.1.1.1.+.o.$.1.#.- m m                         U. X&         1.1.1.1.1.1.1.1.1.1.",
"1.1.1.1.<.@.@.@.O.O.O.@._ -                                   t  X X X  1.1.1.1.1.1.1.1.1.",
"1.1.1.1.<.O.O.O.O.O.O.O.) ; .     i G.G.P f f G G.G.G.  t G.G.H.]. X X  1.1.1.1.1.1.1.1.1.",
"1.1.1.1.<.$.$.$.O.O.O.O.) ; .     ). X X`.~ ~ 8. X X X  U. X X|.  ]. X  :.,.1.1.1.1.1.1.1.",
"1.1.1.1.1.1.1.1.+.O.O.! T . W ! ~.{. Xr K.^.^.~.t ]. X  U. Xu r   r t   ` $.1.1.1.1.1.1.1.",
"1.1.1.1.1.1.1.1.+.O.O.~ Y   ! ^ _.{. X  5._._./.  ]. X  U. X* % % % %   O.$.1.1.1.1.1.1.1.",
"1.1.1.1.1.1.1.1.@.O.O.~ Y   /._._.{. X  5._._./.  ]. X  U. X X X X X X  O.$.<.<.<.1.1.1.1.",
"1.1.1.1.1.1.1.1.<.<.:.~ Y   K.L._.^.^.E.W._._./.E.Q.^.E.Y.T.T.T.T.T.T./ O.O.O.O.+.1.1.1.1.",
"1.1.1.1.1.1.1.1.1.1.:.~ Y     * _.R.Q _._._._._._.R.Q _.E.; - - = - ; O.O.O.O.O.+.1.1.1.1.",
"1.1.1.1.1.1.1.1.1.1.:.~ Y   /./.      ~ Q Q Q Q Q f     O - m B F p ; O.O.O.` ` O.1.1.1.1.",
"1.1.1.1.1.1.1.1.1.1.<.8.R + /./.      E E E E E E 6     O - m B F p ; O.O.$.,.>.,.1.1.1.1.",
"1.1.1.1.1.1.1.1.1.1.1.1.*.h /./.                        O - m B F p ; | O.$.1.1.1.1.1.1.1.",
"1.1.1.1.1.1.1.1.1.1.1.1.<.;.K K ~.L                   ~.L.- m B F p ; @.@.&.1.1.1.1.1.1.1.",
"1.1.1.1.1.1.1.1.1.1.1.1.1.1.l c _.P   . . . . . . .   _.E.- m B F p ; 1.1.1.1.1.1.1.1.1.1.",
"1.1.1.1.1.1.1.1.1.1.1.1.1.1.1.<.g k k ~ ~ ~ ~ ~ ~ ~ ~ O 4 N N B F p ; 1.1.1.1.1.1.1.1.1.1.",
"1.1.1.1.1.1.1.1.1.1.1.1.1.1.1.,.2 H U T T T T T T T T 2 f N Z Z M ] | 1.1.1.1.1.1.1.1.1.1.",
"1.1.1.1.1.1.1.1.1.1.1.1.1.1.1.,.= C F g h k k k h h h k x m S A - =.1.1.1.1.1.1.1.1.1.1.1.",
"1.1.1.1.1.1.1.1.1.1.1.1.1.1.< > D c.m.n.z.N N V n.m.b.D F F F A - =.1.1.1.1.1.1.1.1.1.1.1.",
"1.1.1.1.1.1.1.1.1.1.1.1.,.;.< : S c.n.N.x.n n V N.m.b.D F F S A - =.1.1.1.1.1.1.1.1.1.1.1.",
"1.1.1.1.1.1.1.1.1.1.1.1.#.    o N x.g.(.C.; ; 0 (.B.b.D F F N n ; =.1.1.1.1.1.1.1.1.1.1.1.",
"1.1.1.1.1.1.1.1.1.1.1.8 P.[.[.].x.C.S.(.D.Z.Z.Z.(.S.S.v.z.u.N J ;.<.1.1.1.1.1.1.1.1.1.1.1.",
"1.1.1.1.1.1.1.1.,.>.,.  J. X X Xf.A.F.(.(.(.(.(.(.F.F.f.s.e.N J 1.1.1.1.1.1.1.1.1.1.1.1.1.",
"1.1.1.1.1.1.1.1.+.` $.  J. Xa.j. X X XF.(.(.(.(.(.}. X X'.(.t.h.1.1.1.1.1.1.1.1.1.1.1.1.1.",
"1.1.1.1.1.1.1.1.+.O.$.  J. Xj.k. X X XF.(.(.(.(.(.}. X X'.(.y.h.1.1.1.1.1.1.1.1.1.1.1.1.1.",
"1.1.1.1.1.<.<.1.+.O.$.  J. Xj.k. X X XF.(.(.(.(.(.}. X X'.(.y.h.1.1.<.<.<.<.1.1.1.1.1.1.<.",
"1.1.1.1.<.O.O.O.O.O.O.O.[ % r.y.M.A.(.(.(.(.(.(.(.(.(.(.(.(.y.h.1.1.%.O.O.%.1.1.1.1.1.1.1.",
"1.1.1.1.<.O.} } O.O.O.O.[ $ y.i.M.A.(.D.D.D.D.D.D.F.(.(.(.(.i.l.q.<.$.O.O.$.1.1.1.1.1.1.1.",
"1.1.1.1.<.&.&.&.O.O.O.O.3.r.g.M.(.(.(.g.n.n.n.n.n.A.(.(.(.(.m.g.r.9.+.O.O.+.&.&.&.1.1.1.1.",
"1.1.1.1.1.1.1.1.+.O.O.O.3.r.g.M.(.C.B.p.p.p.p.p.p.M.B.(.(.(.m.g.r.2.O.O.O.O.} } O.1.1.1.1.",
"1.1.1.1.1.1.1.1.+.O.O.O.3.r.g.M.(.V.n.r.r.r.r.r.r.d.g.(.(.(.m.g.r.2.O.O.O.O.O.O.+.1.1.1.1.",
"1.1.1.1.1.1.1.1.$.@.+.O.3.r.g.n.g.g.n.r.6.1.1.1.1.( e.g.g.g.n.g.r.2.O.O.O.O.O.O.O.,.,.<.1.",
"1.1.1.1.1.1.1.1.1.1.:.` 3.r.d.d.d.d.d.r.6.1.1.1.1.7.6.d.d.d.d.s.r.0.$.O.O.O.O.O.O.` ` :.1.",
"1.1.1.1.1.1.1.1.1.1.:.` 3.r.r.r.r.r.r.r.6.1.1.1.1.1.1.r.r.r.r.r.r.0.$.O.O.O.O.O.O.O.` :.1.",
"1.1.1.1.1.1.1.1.1.1.:.O.) X z z z z z X ' 1.1.1.1.1.1.X 1 z z z z 1 # O.O.O.O.O.O.O.O.:.1.",
"1.1.1.1.1.1.1.1.1.1.<.:. .5 j j j j j   ' 1.1.1.1.1.1.  < j j j j 0 5 ,.<.-.` O.O.<.<.<.1.",
"1.1.1.1.1.1.1.1.1.1.1.  I _.c j j j j   ' 1.1.1.1.1.1.  < j j j j Q._.  1.:.` o.O.1.1.1.1.",
"1.1.1.1.1.1.1.1.1.1.1.  e I 1 , , , ,   ' 1.1.1.1.1.1.  + , , , , L I   1.,.%.&.&.1.1.1.1.",
"1.1.1.1.1.1.1.1.1.1.1.| | | | | | | | | #.1.{ { { { { @ q | | | | | | } 1.1.1.1.1.1.1.1.1."
};
