/* XPM */
static char *result[] = {
/* columns rows colors chars-per-pixel */
"45 45 129 2 ",
"   c #000000",
".  c #040D01",
"X  c #0C0E01",
"o  c #3E0302",
"O  c #342212",
"+  c #460302",
"@  c #431500",
"#  c #481003",
"$  c #461801",
"%  c #4C1C01",
"&  c #4E2201",
"*  c #5A3D24",
"=  c #394704",
"-  c #3A4A0B",
";  c #424A0B",
":  c #535E00",
">  c #576212",
",  c #586312",
"<  c #60750F",
"1  c #667912",
"2  c #890109",
"3  c #890E0A",
"4  c #8B1B09",
"5  c #94180B",
"6  c #AD030F",
"7  c #AC1610",
"8  c #BB1412",
"9  c #BD1913",
"0  c #933D02",
"q  c #BF2312",
"w  c #AA3612",
"e  c #D81E17",
"r  c #DF1A18",
"t  c #E01D18",
"y  c #DA2B16",
"u  c #DF2018",
"i  c #E12717",
"p  c #E12B17",
"a  c #E02018",
"s  c #E43316",
"d  c #E43A15",
"f  c #B94E04",
"g  c #98610F",
"h  c #886210",
"j  c #96771B",
"k  c #A46318",
"l  c #AD7314",
"z  c #855C38",
"x  c #CA5605",
"c  c #DF5B00",
"v  c #EB5200",
"b  c #EB570E",
"n  c #EB580F",
"m  c #F05E00",
"M  c #E64314",
"N  c #E74A12",
"B  c #EA5310",
"V  c #DF6004",
"C  c #E16107",
"Z  c #EF6300",
"A  c #EF640A",
"S  c #EF6808",
"D  c #F06400",
"F  c #F06906",
"G  c #F06709",
"H  c #F06808",
"J  c #EF6719",
"K  c #F06A14",
"L  c #EE6521",
"P  c #B27E4E",
"I  c #E25553",
"U  c #CC6941",
"Y  c #EC6A43",
"T  c #E1744A",
"R  c #F07642",
"E  c #F17A4B",
"W  c #F17D50",
"Q  c #6E8512",
"!  c #7F8E1E",
"~  c #9A871F",
"^  c #85A019",
"/  c #9DBD1F",
"(  c #8FA123",
")  c #90A224",
"_  c #9FBE20",
"`  c #ABBB2B",
"'  c #ABA03F",
"]  c #9FC11E",
"[  c #A0C11F",
"{  c #9FC020",
"}  c #A1C020",
"|  c #A8C725",
" . c #ABC926",
".. c #ADC22D",
"X. c #AFCC28",
"o. c #B2CF2A",
"O. c #B7D32C",
"+. c #B8D32C",
"@. c #BED432",
"#. c #C1D733",
"$. c #C1DC31",
"%. c #C8DF36",
"&. c #C7E034",
"*. c #CCE436",
"=. c #CFE738",
"-. c #D0E838",
";. c #D1935C",
":. c #C2AB4C",
">. c #D99860",
",. c #F18A67",
"<. c #EE927F",
"1. c #F2997F",
"2. c #E8A08E",
"3. c #F3A895",
"4. c #F3AB99",
"5. c #F3B9AD",
"6. c #D9D9D7",
"7. c #E4C7C0",
"8. c #EAC8C0",
"9. c #F5CFC7",
"0. c #F5D6CF",
"q. c #F6D7D1",
"w. c #F6DBD6",
"e. c #E7E7E7",
"r. c #F7EBE9",
"t. c #F7F0EF",
"y. c #F7F2F1",
"u. c #F8F7F7",
"i. c #F8F9F9",
/* pixels */
"-.-.-.=.-.-.=.-.-.-.-.-.-.-.-.-.^                       ^ =.=.=.-.-.-.-.-.-.-.-.-.-.-.-.=.",
"-.-.-.-.-.-.-.-.=.-.-.=.=.-.-.-.!                       ! =.-.-.-.-.-.-.-.-.=.-.-.=.=.-.-.",
"-.-.-.-.-.-.-.-.-.-.-.-.-.*.) ) l f f f f f f f f f f f l ) ) ) ) ) @.-.-.=.-.-.-.-.-.-.-.",
"=.-.-.=.=.-.-.=.-.-.-.-.-.%.    x G G G H G G G H H H H x           ..-.-.-.-.-.-.=.-.-.-.",
"-.-.-.-.-.-.-.-.&.%.%.%.%.#.% @ U W W W W W J S A A H H x $ % % % + ` *.*.-.-.=.-.-.-.-.-.",
"-.-.-.-.-.-.-.-., X X X X & G Z q.i.u.u.u.u.I a a n H H G H H G H H 0 . , -.-.-.-.=.-.=.-.",
"-.-.-.-.-.-.-.-.>         % S Z q.i.i.i.i.i.I a t n H H H H H H H H 0   > =.-.-.-.=.-.-.=.",
"-.-.-.-.-.-.-.-.:         $ Z m 0.i.u.i.i.i.I t t B H S H H H H H G 0   , -.-.-.-.-.-.-.-.",
"-.-.-.-.%., , : 6.e.7.v V T r.r.y.u.i.w.,.,.J n A S F H H S F d s s 4   , -.-.-.-.-.-.-.-.",
"-.-.-.-.%.X     e.i.q.Z H W i.i.i.i.i.q.D H H H G H F Z F F H p a a 3   , -.-.-.-.-.-.-.-.",
"-.-.@...` 0 0 0 8.q.5.Z H W i.i.w.w.q.5.v n G H D 1.4.4.1.D G N d M f 0 g ......=.=.-.-.-.",
"-.-.(   + H G H Z Z Z S S W i.i.3.m D v t t A H D q.i.i.q.D G S G G G H C       %.=.-.-.-.",
"-.-.)   % S H F S S H H H W i.i.4.F S b t t A H D q.i.i.0.D G G H H H H V     X %.-.=.-.-.",
"-.-.)   % S H F L ,.R D H E r.u.3.Z F b p p S G D 9.y.r.9.Z G S A A G H C $ % & #.%.*.-.-.",
"-.-.)   % H H D t.i.w.D S H K K G H H H H S H H G K K K K H G p a a n H G S H H &   ) -.-.",
"-.-.)   + F H D r.i.w.D H H H H H H H H H H H H S H H S H H F p a r n H H G H H %   ) -.-.",
"-.-.@...` 0 0 0 2.3.<.v M N H H H H H H H H S G H H H H n M M b n n N M M M M M #   ) -.-.",
"-.-.-.-.&..     c Z b t a p H H S H H H H H H H H H H H n a t S H H M a a a u u +   ) -.-.",
"-.-.-.-.%.X     c Z v r t p H H H H H S H H H S H H H H B r a S H H M u a a a u +   ) -.-.",
"-.-.@...` 0 0 0 2.4.<.M M M n B A S H A n n n n B n n n B M M S H G M a i M M M 5 2 ~ ....",
"-.-.(   + G H D r.i.w.Z H S r r B H H n r t t t t t t r M H H H H H M a s H H H s a 6     ",
"=.-.)   % S G F r.i.0.Z H A i r n H S n t a a a a a a a M G H H H S M a s H H H p a 7     ",
"; - w e y G H H L ,.Y i p p u a i p p i a u A A S M a a i p p p p i n A S S H S p a 7     ",
"    7 a s H H H H S b r a a a a a a a a t a A H S M u a u a a a a t n S H G H H p a 7     ",
"    7 a p H H H H H n r t t a a t t t t t a A H H M t t t a a t t r B H H H G H p a 7     ",
"    7 a i M M M M M N n n B a t N n n n n n M M M B n n N t a B n n A H A M M M i a 7     ",
"    7 a a a a a a u M H H A a t n H H H H H p a r n H H n t a A H S H H A r u a t a 7     ",
"    7 t a a a a a a M H H A a t n H S H H H p u t B H H n t a A H H H G A r a a a a 7     ",
"^ ! k 8 9 a a a a u d n n B a t N B n n n n i a r n H H n t a B n n n n B a a a 9 8 k ! ^ ",
"=.-.)   o a u a a u a t a t a a t t t t t t a a a n H H n t a a t u t t r a a u o   ) -.-.",
"=.=.)   # u u u u u u u u u u u a a a a a u u a t n H H n r u u u u u u u u a u #   ) -.-.",
"=.=.*.%.#.# + + + + + + + + + o 9 a a a a a a a a i p p q o + + + + + + + + + # #.&.-.-.-.",
"=.-.-.-.%.X                     9 t a a a a a a a a a a 9                     X %.-.-.=.-.",
"=.-.=.-.%.                      8 a a a a a a a a a a a 8                       %.-.-.-.-.",
"-.-.-.-.=.......( ^ ^ ^ ^ ^ ^ ^ h 3 3 3 3 3 3 3 3 3 3 3 j ....( ^ ^ ^ ^ ^ ^ ^ ^ &.-.-.-.-.",
"-.=.-.-.-.-.-.-. .} { } } } } } <                       ! -.*.| } { } } { { { { =.-.-.-.-.",
"-.=.-.-.-.=.-.-.X.| | } } / |  .1     O * * * * * O     ^ =.=.X.| | } } } } ] { &.*.=.-.=.",
"-.-.-.=.-.-.=.-.-.-.$.[ ] | -.-.!     z >.>.>.>.>.z     ~ =.=.=.-.-.o.{ } } ] ] / / O.-.-.",
"-.-.-.-.-.-.-.-.-.-.$./ } } -.-.~     z >.>.>.>.>.z     ! =.=.=.-.-.O.{ { } } ` [ [ +.-.-.",
"-.=.-.-.-.=.-.-.-.=.$.} } | -.-.^   X z >.>.>.>.>.z X X ! =.=.=.-.-.o._ } _ { } } } +.-.-.",
"-.-.-.-.-.-.-.-.-.-.$./ [ / - = P ;.;.;.>.>.>.>.>.;.;.;.P = ; / | [ $.*.&._ [ _ &.=.=.=.-.",
"=.-.-.=.-.-.=.-.-.-.$./ [ /     P >.>.>.;.>.>.;.>.>.;.>.P     / _ ] $.-.&./ [ [ =.-.-.-.=.",
"-.-.-.-.-.-.-.-.-.-.&.+.+.o.Q Q ' :.:.:.:.:.:.:.:.:.:.:.' Q Q o.+.O.&.-.-.+.O.+.=.=.-.-.-.",
"-.-.-.-.-.=.-.-.=.-.-.-.-.=.} } ] ] ] ] [ [ [ [ [ [ ] ] [ [ [ =.-.-.-.-.-.-.-.-.=.=.=.-.-.",
"-.-.=.-.-.-.-.-.-.-.-.-.-.=._ _ ] ] ] / ] ] ` } } } [ } _ _ [ *.-.-.-.-.-.-.-.-.=.-.-.-.-."
};
