/* XPM */
static char *brick11714676597[] = {
/* columns rows colors chars-per-pixel */
"40 40 35 1 ",
"  c black",
". c #222034",
"X c #45283C",
"o c #663931",
"O c #8F563B",
"+ c #DF7126",
"@ c #D9A066",
"# c #EEC39A",
"$ c #FBF236",
"% c #99E550",
"& c #6ABE30",
"* c #37946E",
"= c #4B692F",
"- c #524B24",
"; c #323C39",
": c #3F3F74",
"> c #306082",
", c #5B6EE1",
"< c #639BFF",
"1 c #5FCDE4",
"2 c #CBDBFC",
"3 c white",
"4 c #9BADB7",
"5 c #847E87",
"6 c #696A6A",
"7 c #595652",
"8 c #76428A",
"9 c #AC3232",
"0 c #D95763",
"q c #D77BBA",
"w c #8F974A",
"e c #8A6F30",
"r c #7FA45D",
"t c #4F6937",
"y c #566D41",
/* pixels */
"76676666666777666666666666666666677667yy",
"555655555556765555555555555555555665556y",
"5556555555556655555555555555555556545566",
"5555555555566655555555555555555556545566",
"5555555555667645555555555555555557655566",
"6555555556667655555555555555555567665566",
"6555555556667655555555555555555556765566",
"6555555555556765555555555555555556765566",
"666666666666676666666666666666666677666y",
"677766667766666656666666666667766666666y",
"5666555567655555555666666655666555555566",
"5565555566655555555566666555555555555566",
"5565555555555555555556666555555555555566",
"5666555555555555555555666555555555555566",
"5666666655555555555555666555555555555566",
"5666556655555555555555666555555555555566",
"5666555555555555555555666555555555555566",
"6676655555555555555555667655555555555566",
"6677665555565565555556677655555555555566",
"667766655566666665567677655555666777777y",
"556666555555666665567776555555667766666y",
"5555555555555666555555555555555677655566",
"5555555555555665445555555555555566655566",
"5555555555555665555555555555555556655566",
"5555555555555665555555555555555556555566",
"5555555555555666555555555555555556555566",
"5555555555555666655555555555555556555566",
"5555555555555666665665555555555556555566",
"555555555555566666666656666555555665556y",
"655555555555566666666666666555566776566y",
"666777666666666666666666677777666676667y",
"666776555566655555556666677777666566666y",
"5556765545655555455555555666666555555566",
"5556665555555555555555555665555555555555",
"5556665555555555555555555665555555555566",
"5555665555555555555555555676665655555566",
"5555665555555555555555555676656655555566",
"5556665555555555555555555676555555555566",
"5566765555555555555555555677655555555566",
"66667666666666666665566666776655665666yy"
};
